<?xml version="1.0" encoding="UTF-8" standalone="no"?>
<svg
   data-name="Layer 1"
   width="974"
   height="714.52"
   viewBox="0 0 974 714.52"
   version="1.1"
   id="svg328"
   sodipodi:docname="undraw_make_it_rain_sean.svg"
   inkscape:version="1.1.1 (3bf5ae0d25, 2021-09-20)"
   xmlns:inkscape="http://www.inkscape.org/namespaces/inkscape"
   xmlns:sodipodi="http://sodipodi.sourceforge.net/DTD/sodipodi-0.dtd"
   xmlns:xlink="http://www.w3.org/1999/xlink"
   xmlns="http://www.w3.org/2000/svg"
   xmlns:svg="http://www.w3.org/2000/svg"
   xmlns:rdf="http://www.w3.org/1999/02/22-rdf-syntax-ns#"
   xmlns:cc="http://creativecommons.org/ns#"
   xmlns:dc="http://purl.org/dc/elements/1.1/">
  <sodipodi:namedview
     id="namedview169"
     pagecolor="#ffffff"
     bordercolor="#666666"
     borderopacity="1.0"
     inkscape:pageshadow="2"
     inkscape:pageopacity="0.0"
     inkscape:pagecheckerboard="0"
     showgrid="false"
     inkscape:zoom="1.1434249"
     inkscape:cx="494.56679"
     inkscape:cy="343.70424"
     inkscape:window-width="1920"
     inkscape:window-height="995"
     inkscape:window-x="0"
     inkscape:window-y="0"
     inkscape:window-maximized="1"
     inkscape:current-layer="svg328" />
  <defs
     id="defs10">
    <linearGradient
       id="0716a939-3e70-42e2-b2a4-62d4623bb7b7-3"
       x1="574.72"
       y1="713.31"
       x2="574.72"
       y2="358.2"
       gradientUnits="userSpaceOnUse">
      <stop
         offset="0"
         stop-color="gray"
         stop-opacity="0.25"
         id="stop2" />
      <stop
         offset="0.54"
         stop-color="gray"
         stop-opacity="0.12"
         id="stop4" />
      <stop
         offset="1"
         stop-color="gray"
         stop-opacity="0.1"
         id="stop6" />
    </linearGradient>
    <linearGradient
       id="246fdb29-47ea-4475-84d7-0cdffd1436cc-4"
       x1="2975.38"
       y1="757.78"
       x2="2975.38"
       y2="205.6"
       gradientTransform="matrix(-1, 0, 0, 1, 3906, 0)"
       xlink:href="#0716a939-3e70-42e2-b2a4-62d4623bb7b7-3" />
  </defs>
  <title
     id="title12">make_it_rain</title>
  <path
     d="M241.9,454.74c-12.81,3.87-24.8,13.24-28,26.24-3.66,14.94,4.78,30,6,45.34,3.94,50.26-67.56,85.72-57.36,135.09,4.05,19.63,20.42,34.07,36.55,46,25.84,19.05,54.51,35.88,86.26,40.63,48.19,7.22,98.54-14,145.38-.59,37.78,10.82,66.69,42.53,104.21,54.23,28.56,8.91,59.33,5.4,89,1.79,16-1.94,32.76-4.18,45.67-13.78,24-17.87,25.51-53.16,41.58-78.45,24.82-39,79.24-46.66,124.87-39.08S926,698.4,972.23,696.88c9.88-.33,20-1.67,28.62-6.52,10.48-5.89,17.56-16.27,23.82-26.54a429.45,429.45,0,0,0,62.27-213.39c.27-12.95-.19-26.46-6.28-37.89-7.7-14.46-23.09-23.11-38.41-28.93-36.79-14-77.43-16.29-113.48-32.08C894,336.3,865.84,309.59,835.56,286.7a496.49,496.49,0,0,0-204.49-91.07c-17.39-3.36-35.44-5.76-52.72-1.88-19.91,4.47-37.07,16.88-52.5,30.24-41.05,35.54-73.95,79.39-111.78,118.34a636.39,636.39,0,0,1-84.92,73.23c-14,10.09-28.88,22.07-44.48,29.53C270.39,451.91,257,450.19,241.9,454.74Z"
     transform="translate(-113 -92.74)"
     fill="#6c63ff"
     opacity="0.2"
     id="path14"
     style="fill:#f8ec96;fill-opacity:1" />
  <path
     d="M424.88,138.88s-38.65,51.33-11,111.16S365.69,406,365.69,406"
     transform="translate(-113 -92.74)"
     fill="none"
     stroke="#535461"
     stroke-miterlimit="10"
     stroke-width="2"
     id="path16" />
  <path
     d="M442.21,119.67c-3.07,13.21-17.76,21.08-17.76,21.08s-9.7-13.55-6.63-26.76,11-22.65,17.76-21.08S445.28,106.46,442.21,119.67Z"
     transform="translate(-113 -92.74)"
     fill="#8ed16f"
     id="path18" />
  <ellipse
     cx="429.54"
     cy="116.72"
     rx="7.71"
     ry="2.89"
     transform="translate(105.49 415.88) rotate(-76.9)"
     fill="#8ed16f"
     id="ellipse20" />
  <ellipse
     cx="429.54"
     cy="116.72"
     rx="7.71"
     ry="2.89"
     transform="translate(105.49 415.88) rotate(-76.9)"
     opacity="0.3"
     id="ellipse22" />
  <path
     d="M435.53,178.36c-12.76,4.6-27.35-3.46-27.35-3.46s6.1-15.51,18.87-20.1,25-3,27.35,3.46S448.29,173.76,435.53,178.36Z"
     transform="translate(-113 -92.74)"
     fill="#8ed16f"
     id="path24" />
  <ellipse
     cx="431.13"
     cy="166.12"
     rx="7.71"
     ry="2.89"
     transform="matrix(0.94, -0.34, 0.34, 0.94, -143.78, 63.15)"
     fill="#8ed16f"
     id="ellipse26" />
  <ellipse
     cx="431.13"
     cy="166.12"
     rx="7.71"
     ry="2.89"
     transform="matrix(0.94, -0.34, 0.34, 0.94, -143.78, 63.15)"
     opacity="0.3"
     id="ellipse28" />
  <path
     d="M432.56,225.13c-12.76,4.6-27.35-3.46-27.35-3.46s6.1-15.51,18.87-20.1,25-3,27.35,3.46S445.32,220.54,432.56,225.13Z"
     transform="translate(-113 -92.74)"
     fill="#8ed16f"
     id="path30" />
  <ellipse
     cx="428.15"
     cy="212.9"
     rx="7.71"
     ry="2.89"
     transform="translate(-159.81 64.91) rotate(-19.8)"
     fill="#8ed16f"
     id="ellipse32" />
  <ellipse
     cx="428.15"
     cy="212.9"
     rx="7.71"
     ry="2.89"
     transform="translate(-159.81 64.91) rotate(-19.8)"
     opacity="0.3"
     id="ellipse34" />
  <path
     d="M447.47,280c-12.76,4.6-27.35-3.46-27.35-3.46s6.1-15.51,18.87-20.1,25-3,27.35,3.46S460.23,275.43,447.47,280Z"
     transform="translate(-113 -92.74)"
     fill="#8ed16f"
     id="path36" />
  <ellipse
     cx="443.06"
     cy="267.79"
     rx="7.71"
     ry="2.89"
     transform="translate(-177.52 73.21) rotate(-19.8)"
     fill="#8ed16f"
     id="ellipse38" />
  <ellipse
     cx="443.06"
     cy="267.79"
     rx="7.71"
     ry="2.89"
     transform="translate(-177.52 73.21) rotate(-19.8)"
     opacity="0.3"
     id="ellipse40" />
  <path
     d="M437.77,330.18c-12.76,4.6-27.35-3.46-27.35-3.46s6.1-15.51,18.87-20.1,25-3,27.35,3.46S450.54,325.59,437.77,330.18Z"
     transform="translate(-113 -92.74)"
     fill="#8ed16f"
     id="path42" />
  <ellipse
     cx="433.37"
     cy="317.95"
     rx="7.71"
     ry="2.89"
     transform="matrix(0.94, -0.34, 0.34, 0.94, -195.09, 72.89)"
     fill="#8ed16f"
     id="ellipse44" />
  <ellipse
     cx="433.37"
     cy="317.95"
     rx="7.71"
     ry="2.89"
     transform="matrix(0.94, -0.34, 0.34, 0.94, -195.09, 72.89)"
     opacity="0.3"
     id="ellipse46" />
  <path
     d="M377.92,191.65c9.42,9.76,26.07,9,26.07,9s1.37-16.61-8.05-26.37-21.09-13.78-26.07-9S368.5,181.89,377.92,191.65Z"
     transform="translate(-113 -92.74)"
     fill="#8ed16f"
     id="path48" />
  <ellipse
     cx="387.28"
     cy="182.62"
     rx="2.89"
     ry="7.71"
     transform="translate(-131.18 227.49) rotate(-43.99)"
     fill="#8ed16f"
     id="ellipse50" />
  <ellipse
     cx="387.28"
     cy="182.62"
     rx="2.89"
     ry="7.71"
     transform="translate(-131.18 227.49) rotate(-43.99)"
     opacity="0.3"
     id="ellipse52" />
  <path
     d="M372.51,346.64c9.42,9.76,26.07,9,26.07,9s1.37-16.61-8.05-26.37-21.09-13.78-26.07-9S363.09,336.88,372.51,346.64Z"
     transform="translate(-113 -92.74)"
     fill="#8ed16f"
     id="path54" />
  <ellipse
     cx="381.86"
     cy="337.61"
     rx="2.89"
     ry="7.71"
     transform="translate(-240.35 267.22) rotate(-43.99)"
     fill="#8ed16f"
     id="ellipse56" />
  <ellipse
     cx="381.86"
     cy="337.61"
     rx="2.89"
     ry="7.71"
     transform="translate(-240.35 267.22) rotate(-43.99)"
     opacity="0.3"
     id="ellipse58" />
  <path
     d="M385,246.43c12.14,6.06,27.57-.24,27.57-.24s-4.25-16.11-16.38-22.17-24.48-6-27.57.24S372.86,240.37,385,246.43Z"
     transform="translate(-113 -92.74)"
     fill="#8ed16f"
     id="path60" />
  <ellipse
     cx="390.8"
     cy="234.8"
     rx="2.89"
     ry="7.71"
     transform="translate(-106.8 386.88) rotate(-63.48)"
     fill="#8ed16f"
     id="ellipse62" />
  <ellipse
     cx="390.8"
     cy="234.8"
     rx="2.89"
     ry="7.71"
     transform="translate(-106.8 386.88) rotate(-63.48)"
     opacity="0.3"
     id="ellipse64" />
  <path
     d="M390.09,301c12.14,6.06,27.57-.24,27.57-.24s-4.25-16.11-16.38-22.17-24.48-6-27.57.24S378,295,390.09,301Z"
     transform="translate(-113 -92.74)"
     fill="#8ed16f"
     id="path66" />
  <ellipse
     cx="395.9"
     cy="289.38"
     rx="2.89"
     ry="7.71"
     transform="translate(-152.82 421.65) rotate(-63.48)"
     fill="#8ed16f"
     id="ellipse68" />
  <ellipse
     cx="395.9"
     cy="289.38"
     rx="2.89"
     ry="7.71"
     transform="translate(-152.82 421.65) rotate(-63.48)"
     opacity="0.3"
     id="ellipse70" />
  <path
     d="M238.73,249.21s70.59,70.59,30.74,175.34,68.31,278.94,68.31,278.94-1.16-.17-3.31-.55c-145-25.59-217-191.41-136.4-314.59C228,342.55,252.65,288.83,238.73,249.21Z"
     transform="translate(-113 -92.74)"
     fill="#8ed16f"
     id="path72" />
  <path
     d="M113,534.72s80.55-12.83,87.89,59.36,154.89,82.2,154.89,82.2-1,.66-2.77,1.84c-121.83,80-238.29,50.94-220.74-55.25C138.81,583.38,138.27,543.73,113,534.72Z"
     transform="translate(-113 -92.74)"
     fill="#8ed16f"
     id="path74" />
  <g
     opacity="0.3"
     id="g78">
    <path
       d="M113,534.72s80.55-12.83,87.89,59.36,154.89,82.2,154.89,82.2-1,.66-2.77,1.84c-121.83,80-238.29,50.94-220.74-55.25C138.81,583.38,138.27,543.73,113,534.72Z"
       transform="translate(-113 -92.74)"
       fill="#fff"
       id="path76" />
  </g>
  <ellipse
     cx="105.34"
     cy="383.3"
     rx="22.15"
     ry="57.79"
     fill="#8ed16f"
     id="ellipse80" />
  <ellipse
     cx="105.34"
     cy="383.3"
     rx="22.15"
     ry="57.79"
     opacity="0.3"
     id="ellipse82" />
  <ellipse
     cx="192.81"
     cy="662.42"
     rx="14.93"
     ry="33.23"
     transform="translate(-524.92 237.62) rotate(-45)"
     fill="#8ed16f"
     id="ellipse84" />
  <ellipse
     cx="192.81"
     cy="662.42"
     rx="14.93"
     ry="33.23"
     transform="translate(-524.92 237.62) rotate(-45)"
     opacity="0.3"
     id="ellipse86" />
  <path
     d="M836.89,358.2H312.55a23.89,23.89,0,0,0-23.89,23.89V689.42a23.89,23.89,0,0,0,23.89,23.89H836.89a23.89,23.89,0,0,0,23.89-23.89V382.09A23.89,23.89,0,0,0,836.89,358.2Z"
     transform="translate(-113 -92.74)"
     fill="url(#0716a939-3e70-42e2-b2a4-62d4623bb7b7-3)"
     id="path88" />
  <rect
     x="182.39"
     y="269.64"
     width="558.65"
     height="346.75"
     rx="24.81"
     ry="24.81"
     fill="#6c63ff"
     id="rect90"
     style="fill:#e3a824;fill-opacity:1" />
  <rect
     x="182.39"
     y="330.32001"
     width="558.65002"
     height="63.57"
     opacity="0.3"
     id="rect94" />
  <rect
     x="235.37"
     y="441.09"
     width="452.7"
     height="30.82"
     fill="#d6d6e3"
     id="rect96" />
  <circle
     cx="272.93"
     cy="548.97"
     r="44.31"
     opacity="0.3"
     id="circle100" />
  <path
     d="M822.28,276.88a9.7,9.7,0,0,0,4.27,5.4c9.19,6.07,29.17,4.78,31.57,4.78.51,0,1.18.91,1.92,2.44,3.53,7.28,9,28.62,9.37,33.42.49,5.81,5.89,33,14.73,43.13.27.31.54.6.8.87,8.67,8.71,18.84-.87,18.84-.87l1.46-5.07c-.41,2-.87,4.33-1.33,6.94-.23,1.31-.46,2.7-.68,4.13a158.29,158.29,0,0,0-2.07,24.37,88.41,88.41,0,0,0,.38,8.88c.08.82.17,1.63.28,2.42a84.78,84.78,0,0,1,.66,10.84c-.08,21.52-5.57,48.29-5.57,48.29l.21-.07c-.13.67-.21,1-.21,1l.32-.1q-.23,1.49-.44,3.05c-1.86,13.5-2.93,30.3-3.44,40a80.1,80.1,0,0,0,.68,15.32l9.76,68.71v32a56.5,56.5,0,0,0,1.76,14.38c3.18,12.09.56,54.29-.91,74.31-.41,5.46-.73,9.28-.82,10.38l0,.33.28-.11c0,.23,0,.35,0,.35a5.65,5.65,0,0,1,1.3-.38c-3.87,6-10.88,15.92-16.27,17.59A17.07,17.07,0,0,0,881,749l-.14.19-.2.28a6,6,0,0,0-1.17,3.06,3.38,3.38,0,0,1-.18-.59c-.41,2.23.93,4.27,5.14,5.26a34.6,34.6,0,0,0,7.45.6c14.6,0,40.51-4.49,43.37-9.32V731.82l.47.15,0,.15,1.79.59,4.91-16.48c5.89-4.36,1-82.39,0-100.32-.9-16.34,9.21-81.34,11-92.79l-.24-.29.27-1.67a7.11,7.11,0,0,1,1,.88A13.07,13.07,0,0,1,956,524.3a30.22,30.22,0,0,1,2.17,4.48c9.88,24.64,14.33,95.1,14.33,101.42v66.26a69,69,0,0,0,2.7,19.33,82.91,82.91,0,0,1,2.1,10.06c.21,1.33.39,2.65.56,3.91s.34,2.7.47,3.88c0,.31.07.61.1.89s0,.27,0,.41c.27,2.61.41,4.32.41,4.32a1,1,0,0,1,.2-.39l.05.63a1.35,1.35,0,0,1,.39-.62,9.47,9.47,0,0,1,1.32-1.08v8.42l-.24-.18v1.45c10.18,7.68,26.75,10,39.47,9.91,8.25,0,14.93-1,17.25-2.16,3.32-1.63,1.5-5.43-1.52-8.34-2.34-2.26-5.39-4-7.32-3.78-3.22.35-14.23-12.12-20-18.95l.65-.29.92-.4V613s1.48-43.62,5.89-86.76a153.48,153.48,0,0,0-7.55-64.36l-.14-.41,1.34.21c1.42.22,2.18.35,2.18.35s0-.34-.09-1h.09s-1.72-18.71-1.74-42.21c0-26.64,2.25-59.12,11.56-77.5,5.36-10.58,7.15-19,7-25.64a26.82,26.82,0,0,0-4.79-16.4,13,13,0,0,0-5.51-4.36l-.19-.11h-.1a13.7,13.7,0,0,0-5.06-1H992.79a13.43,13.43,0,0,1-6.64-1.75l-7.87-4.46c-2.62-5.73-3-12.83-2.44-19.49,0-.53.1-1.06.15-1.58l.57-.6c.44-.47.85-1,1.25-1.45a11.15,11.15,0,0,1-.09,1.18c-.1.63-.27,1-.54,1.08,4.3-.56,9.1-1.41,11.74-4.73.11-.13.21-.27.31-.41a21.43,21.43,0,0,0,1.93-4,11.62,11.62,0,0,1,1.47-2.68c.66-.86,1.52-1.56,2.23-2.38l.12-.14c2.53-3,2.67-7.3,2.7-11.22.05-9.52-.23-20-6.6-27.14-5.29-5.94-13.73-8.19-21.74-8.45s-16,1.18-24,1.22c-5.44,0-12-.09-15,4.41-1.47,2.21-1.65,5.1-3.25,7.22-.92,1.22-2.33,2.27-2.41,3.79a3.89,3.89,0,0,0,.52,2l0,.07c1.94,3.82,6.06,6.2,10.36,6.95a25.81,25.81,0,0,0-2,2.76,26.28,26.28,0,0,0-4,14c0,.58,0,1.15.06,1.72A26.43,26.43,0,0,0,938,267.34c-.08.56-.16,1.12-.25,1.67l.18.16q.85.77,1.77,1.46l.22.17c0,.35,0,.7,0,1,0,.58,0,1.17-.06,1.74s0,.92-.06,1.38l-.13-.11-9.77-8.16-15.71-14.54s-39.28-28.59-41.25-15a9.79,9.79,0,0,0,1.87,6.78c7.21,11,32,20.36,32,20.36s14.78,15.63,24.67,32.48c-.35.19-.7.37-1.07.54-8.8,4.09-21.64,2.36-21.64,2.36-14.83,2.31-16.17,18.56-16.09,25.13,0,.31,0,.61,0,.88s0,.33,0,.48L873,279.91l-.06-.14a9.73,9.73,0,0,0-7.36-5.78C852.42,271.78,819.53,267.17,822.28,276.88Zm82.39,449a8.57,8.57,0,0,1,.87-.16l-.09.14Z"
     transform="translate(-113 -92.74)"
     fill="url(#246fdb29-47ea-4475-84d7-0cdffd1436cc-4)"
     id="path102" />
  <path
     d="M1003,716.43s18.64,23.43,22.95,22.95,14.34,9.08,8.61,12-38.72,4.78-55-7.65V725Z"
     transform="translate(-113 -92.74)"
     fill="#aca9c9"
     id="path104" />
  <path
     d="M908.81,717.86s-11,19.6-18.64,22-14.34,11-4.3,13.39,45.9-2.87,49.24-8.61V719.29Z"
     transform="translate(-113 -92.74)"
     fill="#aca9c9"
     id="path106" />
  <path
     d="M895,525.31l9.5,67.78V624.6a56.48,56.48,0,0,0,1.72,14.18c3.1,11.93.55,53.55-.89,73.3-.47,6.44-.83,10.56-.83,10.56,6.21-2.87,32.51,6.21,32.51,6.21l2.66-9.05,2.12-7.2c5.74-4.3,1-81.27,0-99-.65-12.11,4.75-51.37,8.21-74.9,1-6.65,1.81-12,2.3-15.22.31-2,.48-3.11.48-3.11a10.47,10.47,0,0,1,2.58,3.11,29.93,29.93,0,0,1,2.11,4.42c9.62,24.31,14,93.81,14,100v65.36a68.92,68.92,0,0,0,2.63,19.07,100,100,0,0,1,2.59,13.77c.68,5.19,1,9.37,1,9.37.48-2.87,30.12-15.78,30.12-15.78v-109s1.43-43,5.74-85.58a152.68,152.68,0,0,0-5.5-57.58c-1.19-4.07-2.38-7.52-3.41-10.25-1.75-4.65-3-7.22-3-7.22H904c-1.64.31-3,3.61-4.23,8.62-.8,3.36-1.5,7.48-2.11,12-1.81,13.31-2.85,29.88-3.35,39.46A79.86,79.86,0,0,0,895,525.31Z"
     transform="translate(-113 -92.74)"
     fill="#618fd8"
     id="path108"
     style="fill:#502d16" />
  <g
     opacity="0.1"
     id="g116">
    <path
       d="M1006.09,720V611s1.43-43,5.74-85.58-12-75.06-12-75.06h1.91s16.25,32.51,12,75.06S1008,611,1008,611V720s-29.64,12.91-30.12,15.78c0,0,0-.64-.15-1.74C984.19,729.55,1006.09,720,1006.09,720Z"
       transform="translate(-113 -92.74)"
       id="path110" />
    <path
       d="M907.37,722.34a7.42,7.42,0,0,0-2.63.54l0-.48A17.06,17.06,0,0,1,907.37,722.34Z"
       transform="translate(-113 -92.74)"
       id="path112" />
    <path
       d="M940.12,712.84c5.74-4.3,1-81.27,0-99s11-93.22,11-93.22a8.34,8.34,0,0,1,1.65,1.7c-1.76,11.28-11.6,75.41-10.73,91.52,1,17.69,5.74,94.66,0,99l-4.78,16.25-1.74-.58Z"
       transform="translate(-113 -92.74)"
       id="path114" />
  </g>
  <path
     d="M914.54,332.05l-10,35.38s-10.52,10-19.12,0S871.52,330.62,871,324.88s-8.13-35.38-11-35.38-31.55,1.91-34.9-10c-2.68-9.58,29.34-5,42.16-2.85a9.5,9.5,0,0,1,7.17,5.7l19.66,46.95S904.5,317.23,914.54,332.05Z"
     transform="translate(-113 -92.74)"
     fill="#f7c4a7"
     id="path118" />
  <path
     d="M979.08,249.82s-12.43,34.9,3.35,47.33S926,312.93,926,312.93l9.8-9.32s6.93-27.49,2.15-50.44Z"
     transform="translate(-113 -92.74)"
     fill="#f7c4a7"
     id="path120" />
  <path
     d="M963.78,297.15s12.67-3.11,12.67-6.45l11.23,6.45h28.21s20.56,11.47,3.35,45.9-9.56,119-9.56,119-61.19-11-111.87,5.74c0,0,7.65-37.77,4.78-59.28s4.78-51.63,4.78-51.63l4.3-18.17s-.24-17-17.93-8.37c0,0-2.63-24.62,15.54-27.49,0,0,21,2.87,27.25-7.65C936.53,295.24,950.4,303.37,963.78,297.15Z"
     transform="translate(-113 -92.74)"
     opacity="0.1"
     id="path122" />
  <path
     d="M963.78,296.2s12.67-3.11,12.67-6.45l8.23,4.73a13,13,0,0,0,6.46,1.72h19.73a13,13,0,0,1,10.57,5.38c4.53,6.37,8.59,18.93-2.2,40.52-17.21,34.42-9.56,119-9.56,119s-61.19-11-111.87,5.74c0,0,7.65-37.77,4.78-59.28S907.37,356,907.37,356l4.3-18.17s-.24-17-17.93-8.37c0,0-2.56-23.94,14.79-27.36A4.9,4.9,0,0,1,910,302c3.71.39,21,1.64,26.54-7.73C936.53,294.28,950.4,302.41,963.78,296.2Z"
     transform="translate(-113 -92.74)"
     fill="#e14b5a"
     id="path124"
     style="fill:#005500;fill-opacity:1" />
  <path
     d="M1012.07,339.7s-15.3,9.56-40.16,0c0,0-27.25-10-35.86-29.64s43.5,3.35,43.5,3.35,11,0,14.34-2.39S1020.67,329.18,1012.07,339.7Z"
     transform="translate(-113 -92.74)"
     opacity="0.1"
     id="path126" />
  <path
     d="M1012.07,337.79s-15.3,9.56-40.16,0c0,0-27.25-10-35.86-29.64S907.37,267,907.37,267s-34.9-13.39-33-26.77,40.16,14.82,40.16,14.82l15.3,14.34,49.72,42.07s11,0,14.34-2.39S1020.67,327.27,1012.07,337.79Z"
     transform="translate(-113 -92.74)"
     fill="#f7c4a7"
     id="path128" />
  <path
     d="M937.49,254.6l41.11-3.35a94.37,94.37,0,0,0-4.29,19.47,26.27,26.27,0,0,1-36.8,1A46.73,46.73,0,0,0,937.49,254.6Z"
     transform="translate(-113 -92.74)"
     opacity="0.1"
     id="path130" />
  <circle
     cx="842.9"
     cy="158.28"
     r="26.29"
     fill="#f7c4a7"
     id="circle132" />
  <path
     d="M970.33,256.73c-1.54-2.54,1.59-5.85.56-8.63-.95-2.56-4.73-3-6-5.39-1-1.93,0-4.3-.4-6.43-.57-2.75-3.53-4.46-6.34-4.6s-5.52.91-8.19,1.81c-4.35,1.47-8.93,2.6-13.49,2.08s-9.11-3-11.14-7.07a4,4,0,0,1-.51-1.94c.08-1.5,1.46-2.53,2.35-3.73,1.56-2.09,1.74-4.94,3.16-7.12,2.9-4.44,9.27-4.33,14.57-4.35,7.8,0,15.56-1.46,23.36-1.2s16,2.47,21.17,8.33c6.2,7.05,6.48,17.37,6.43,26.77,0,3.87-.16,8.08-2.63,11.07-.72.87-1.6,1.59-2.29,2.48-1.5,2-1.9,4.56-3.31,6.59-2.5,3.61-7.38,4.49-11.73,5.07,1.28-.17.22-8.74,0-9.53C975.06,257,974.15,257.08,970.33,256.73Z"
     transform="translate(-113 -92.74)"
     opacity="0.1"
     id="path134" />
  <path
     d="M970.33,255.78c-1.54-2.54,1.59-5.85.56-8.63-.95-2.56-4.73-3-6-5.39-1-1.93,0-4.3-.4-6.43-.57-2.75-3.53-4.46-6.34-4.6s-5.52.91-8.19,1.81c-4.35,1.47-8.93,2.6-13.49,2.08s-9.11-3-11.14-7.07a4,4,0,0,1-.51-1.94c.08-1.5,1.46-2.53,2.35-3.73,1.56-2.09,1.74-4.94,3.16-7.12,2.9-4.44,9.27-4.33,14.57-4.35,7.8,0,15.56-1.46,23.36-1.2s16,2.47,21.17,8.33c6.2,7.05,6.48,17.37,6.43,26.77,0,3.87-.16,8.08-2.63,11.07-.72.87-1.6,1.59-2.29,2.48-1.5,2-1.9,4.56-3.31,6.59-2.5,3.61-7.38,4.49-11.73,5.07,1.28-.17.22-8.74,0-9.53C975.06,256,974.15,256.12,970.33,255.78Z"
     transform="translate(-113 -92.74)"
     fill="#281c1c"
     id="path136" />
  <path
     d="M1011.83,340.9s-12.91-33.47-22.95-34.42,19.12,0,19.12,0l9.56,17.21Z"
     transform="translate(-113 -92.74)"
     opacity="0.1"
     id="path138" />
  <path
     d="M1012.79,340.9s-12.91-33.47-22.95-34.42,19.12,0,19.12,0l9.56,17.21Z"
     transform="translate(-113 -92.74)"
     fill="#e14b5a"
     id="path140"
     style="fill:#004900;fill-opacity:1" />
  <path
     d="M976.65,726.18c.68,5.19,1,9.37,1,9.37.48-2.87,30.12-15.78,30.12-15.78V712a13.18,13.18,0,0,0-2.26.11c-5.75.77-11.08,3.56-16,6.54A145.93,145.93,0,0,1,976.65,726.18Z"
     transform="translate(-113 -92.74)"
     fill="#618fd8"
     id="path142"
     style="fill:#502d16;fill-opacity:1" />
  <path
     d="m 863.65,633.44 c 0.68,5.19 1,9.37 1,9.37 0.48,-2.87 30.12,-15.78 30.12,-15.78 v -7.77 a 13.18,13.18 0 0 0 -2.26,0.11 c -5.75,0.77 -11.08,3.56 -16,6.54 a 145.93,145.93 0 0 1 -12.86,7.53 z"
     opacity="0.3"
     id="path144" />
  <path
     d="M904.5,722.64c6.21-2.87,32.51,6.21,32.51,6.21l2.66-9.05c-4.59-.93-9.15-2.09-13.63-3.47a45.34,45.34,0,0,1-6.12-2.26,41,41,0,0,0-4.08-1.9c-3.43-1.18-7-.68-10.52-.09C904.86,718.52,904.5,722.64,904.5,722.64Z"
     transform="translate(-113 -92.74)"
     fill="#618fd8"
     id="path146"
     style="fill:#502d16;fill-opacity:1" />
  <path
     d="m 791.5,629.9 c 6.21,-2.87 32.51,6.21 32.51,6.21 l 2.66,-9.05 c -4.59,-0.93 -9.15,-2.09 -13.63,-3.47 a 45.34,45.34 0 0 1 -6.12,-2.26 41,41 0 0 0 -4.08,-1.9 c -3.43,-1.18 -7,-0.68 -10.52,-0.09 -0.46,6.44 -0.82,10.56 -0.82,10.56 z"
     opacity="0.3"
     id="path148" />
  <path
     d="M1034.3,749.89a2.86,2.86,0,0,0,1.64-1.9,2.81,2.81,0,0,1-1.64,3.33c-5.74,2.87-38.72,4.78-55-7.65v-1.43C995.58,754.67,1028.56,752.76,1034.3,749.89Z"
     transform="translate(-113 -92.74)"
     fill="#fff"
     opacity="0.4"
     id="path150" />
  <path
     d="M885.62,751.8c10,2.39,45.9-2.87,49.24-8.61v1.43c-3.35,5.74-39.2,11-49.24,8.61-4.1-1-5.41-3-5-5.19C880.94,749.66,882.44,751,885.62,751.8Z"
     transform="translate(-113 -92.74)"
     fill="#fff"
     opacity="0.4"
     id="path152" />
  <path
     d="M943.94,403.53s-10.52-3.35-13.39,0-27.4,11.2-27.4,11.2"
     transform="translate(-113 -92.74)"
     opacity="0.1"
     id="path154"
     style="fill:#004900;fill-opacity:1" />
  <rect
     x="824.9"
     y="271.1"
     width="51.15"
     height="1.08"
     transform="translate(1587.96 450.53) rotate(-180)"
     fill="#8ed16f"
     id="rect156" />
  <rect
     x="824.9"
     y="272.17"
     width="51.15"
     height="1.08"
     transform="translate(1587.96 452.68) rotate(-180)"
     fill="#8ed16f"
     id="rect158" />
  <rect
     x="824.9"
     y="272.17"
     width="51.15"
     height="1.08"
     transform="translate(1587.96 452.68) rotate(-180)"
     opacity="0.1"
     id="rect160" />
  <rect
     x="824.9"
     y="273.25"
     width="51.15"
     height="1.08"
     transform="translate(1587.96 454.84) rotate(-180)"
     fill="#8ed16f"
     id="rect162" />
  <rect
     x="824.9"
     y="274.33"
     width="51.15"
     height="1.08"
     transform="translate(1587.96 456.99) rotate(-180)"
     fill="#8ed16f"
     id="rect164" />
  <rect
     x="824.9"
     y="274.33"
     width="51.15"
     height="1.08"
     transform="translate(1587.96 456.99) rotate(-180)"
     opacity="0.1"
     id="rect166" />
  <rect
     x="824.9"
     y="275.4"
     width="51.15"
     height="1.08"
     transform="translate(1587.96 459.14) rotate(-180)"
     fill="#8ed16f"
     id="rect168" />
  <rect
     x="824.9"
     y="276.48"
     width="51.15"
     height="1.08"
     transform="translate(1587.96 461.29) rotate(-180)"
     fill="#8ed16f"
     id="rect170" />
  <rect
     x="824.9"
     y="276.48"
     width="51.15"
     height="1.08"
     transform="translate(1587.96 461.29) rotate(-180)"
     opacity="0.1"
     id="rect172" />
  <rect
     x="824.9"
     y="277.55"
     width="51.15"
     height="1.08"
     transform="translate(1587.96 463.44) rotate(-180)"
     fill="#8ed16f"
     id="rect174" />
  <rect
     x="824.9"
     y="278.63"
     width="51.15"
     height="1.08"
     transform="translate(1587.96 465.59) rotate(-180)"
     fill="#8ed16f"
     id="rect176" />
  <rect
     x="824.9"
     y="278.63"
     width="51.15"
     height="1.08"
     transform="translate(1587.96 465.59) rotate(-180)"
     opacity="0.1"
     id="rect178" />
  <rect
     x="824.9"
     y="262.49"
     width="51.15"
     height="1.08"
     transform="translate(1587.96 433.32) rotate(-180)"
     fill="#8ed16f"
     id="rect180" />
  <rect
     x="824.9"
     y="263.57"
     width="51.15"
     height="1.08"
     transform="translate(1587.96 435.47) rotate(-180)"
     fill="#8ed16f"
     id="rect186" />
  <rect
     x="824.9"
     y="263.57"
     width="51.15"
     height="1.08"
     transform="translate(1587.96 435.47) rotate(-180)"
     opacity="0.1"
     id="rect188" />
  <rect
     x="824.9"
     y="264.64"
     width="51.15"
     height="1.08"
     transform="translate(1587.96 437.63) rotate(-180)"
     fill="#8ed16f"
     id="rect190" />
  <rect
     x="824.9"
     y="265.72"
     width="51.15"
     height="1.08"
     transform="translate(1587.96 439.78) rotate(-180)"
     fill="#8ed16f"
     id="rect192" />
  <rect
     x="824.9"
     y="265.72"
     width="51.15"
     height="1.08"
     transform="translate(1587.96 439.78) rotate(-180)"
     opacity="0.1"
     id="rect194" />
  <rect
     x="824.9"
     y="266.8"
     width="51.15"
     height="1.08"
     transform="translate(1587.96 441.93) rotate(-180)"
     fill="#8ed16f"
     id="rect196" />
  <rect
     x="824.9"
     y="267.87"
     width="51.15"
     height="1.08"
     transform="translate(1587.96 444.08) rotate(-180)"
     fill="#8ed16f"
     id="rect198" />
  <rect
     x="824.9"
     y="267.87"
     width="51.15"
     height="1.08"
     transform="translate(1587.96 444.08) rotate(-180)"
     opacity="0.1"
     id="rect200" />
  <rect
     x="824.9"
     y="268.95"
     width="51.15"
     height="1.08"
     transform="translate(1587.96 446.23) rotate(-180)"
     fill="#8ed16f"
     id="rect202" />
  <rect
     x="824.9"
     y="270.02"
     width="51.15"
     height="1.08"
     transform="translate(1587.96 448.38) rotate(-180)"
     fill="#8ed16f"
     id="rect204" />
  <rect
     x="824.9"
     y="270.02"
     width="51.15"
     height="1.08"
     transform="translate(1587.96 448.38) rotate(-180)"
     opacity="0.1"
     id="rect206" />
  <rect
     x="821.56"
     y="278.75"
     width="18.64"
     height="36.33"
     transform="translate(1480.61 647.76) rotate(-169.48)"
     fill="#8ed16f"
     id="rect208" />
  <ellipse
     cx="831.11"
     cy="296.96"
     rx="7.65"
     ry="3.82"
     transform="translate(274.45 967.17) rotate(-79.48)"
     fill="#8ed16f"
     id="ellipse210" />
  <ellipse
     cx="831.11"
     cy="296.96"
     rx="7.65"
     ry="3.82"
     transform="translate(274.45 967.17) rotate(-79.48)"
     opacity="0.1"
     id="ellipse212" />
  <rect
     x="824.7"
     y="354.13"
     width="18.64"
     height="36.33"
     transform="translate(1473.07 797.84) rotate(-169.48)"
     fill="#8ed16f"
     id="rect214" />
  <ellipse
     cx="834.25"
     cy="372.34"
     rx="7.65"
     ry="3.82"
     transform="translate(202.89 1031.88) rotate(-79.48)"
     fill="#8ed16f"
     id="ellipse216" />
  <ellipse
     cx="834.25"
     cy="372.34"
     rx="7.65"
     ry="3.82"
     transform="translate(202.89 1031.88) rotate(-79.48)"
     opacity="0.1"
     id="ellipse218" />
  <rect
     x="757.49"
     y="201.78"
     width="18.64"
     height="36.33"
     transform="translate(95.43 696.93) rotate(-61.58)"
     fill="#8ed16f"
     id="rect220" />
  <ellipse
     cx="766.7"
     cy="220.15"
     rx="3.82"
     ry="7.65"
     transform="matrix(0.48, -0.88, 0.88, 0.48, 95.18, 696.94)"
     fill="#8ed16f"
     id="ellipse222" />
  <ellipse
     cx="766.7"
     cy="220.15"
     rx="3.82"
     ry="7.65"
     transform="matrix(0.48, -0.88, 0.88, 0.48, 95.18, 696.94)"
     opacity="0.1"
     id="ellipse224" />
  <rect
     x="687.34"
     y="525.31"
     width="18.64"
     height="36.33"
     transform="translate(-225.88 804.78) rotate(-61.58)"
     fill="#8ed16f"
     id="rect226" />
  <ellipse
     cx="696.55"
     cy="543.69"
     rx="3.82"
     ry="7.65"
     transform="translate(-226.12 804.8) rotate(-61.58)"
     fill="#8ed16f"
     id="ellipse228" />
  <ellipse
     cx="696.55"
     cy="543.69"
     rx="3.82"
     ry="7.65"
     transform="translate(-226.12 804.8) rotate(-61.58)"
     opacity="0.1"
     id="ellipse230" />
  <rect
     x="644.41"
     y="258.32"
     width="18.64"
     height="36.33"
     transform="translate(-13.56 627.11) rotate(-61.58)"
     fill="#8ed16f"
     id="rect232" />
  <ellipse
     cx="653.62"
     cy="276.69"
     rx="3.82"
     ry="7.65"
     transform="translate(-13.8 627.12) rotate(-61.58)"
     fill="#8ed16f"
     id="ellipse234" />
  <ellipse
     cx="653.62"
     cy="276.69"
     rx="3.82"
     ry="7.65"
     transform="translate(-13.8 627.12) rotate(-61.58)"
     opacity="0.1"
     id="ellipse236" />
  <rect
     x="698.21"
     y="201.78"
     width="18.64"
     height="36.33"
     transform="translate(64.36 644.79) rotate(-61.58)"
     fill="#8ed16f"
     id="rect238" />
  <ellipse
     cx="707.42"
     cy="220.15"
     rx="3.82"
     ry="7.65"
     transform="translate(64.12 644.8) rotate(-61.58)"
     fill="#8ed16f"
     id="ellipse240" />
  <ellipse
     cx="707.42"
     cy="220.15"
     rx="3.82"
     ry="7.65"
     transform="translate(64.12 644.8) rotate(-61.58)"
     opacity="0.1"
     id="ellipse242" />
  <rect
     x="733.11"
     y="270.67"
     width="18.64"
     height="36.33"
     transform="translate(-140.01 -10.27) rotate(-6.24)"
     fill="#8ed16f"
     id="rect244" />
  <ellipse
     cx="742.19"
     cy="288.87"
     rx="3.82"
     ry="7.65"
     transform="translate(-140.02 -10.3) rotate(-6.24)"
     fill="#8ed16f"
     id="ellipse246" />
  <ellipse
     cx="742.19"
     cy="288.87"
     rx="3.82"
     ry="7.65"
     transform="translate(-140.02 -10.3) rotate(-6.24)"
     opacity="0.1"
     id="ellipse248" />
  <rect
     x="860.17"
     y="468.42"
     width="18.64"
     height="36.33"
     transform="translate(-160.77 4.72) rotate(-6.24)"
     fill="#8ed16f"
     id="rect250" />
  <ellipse
     cx="869.25"
     cy="486.61"
     rx="3.82"
     ry="7.65"
     transform="translate(-160.77 4.7) rotate(-6.24)"
     fill="#8ed16f"
     id="ellipse252" />
  <ellipse
     cx="869.25"
     cy="486.61"
     rx="3.82"
     ry="7.65"
     transform="translate(-160.77 4.7) rotate(-6.24)"
     opacity="0.1"
     id="ellipse254" />
  <rect
     x="679.37"
     y="345.22"
     width="18.64"
     height="36.33"
     transform="translate(-71.67 703.39) rotate(-61.58)"
     fill="#8ed16f"
     id="rect256" />
  <ellipse
     cx="688.57"
     cy="363.6"
     rx="3.82"
     ry="7.65"
     transform="translate(-71.92 703.4) rotate(-61.58)"
     fill="#8ed16f"
     id="ellipse258" />
  <ellipse
     cx="688.57"
     cy="363.6"
     rx="3.82"
     ry="7.65"
     transform="translate(-71.92 703.4) rotate(-61.58)"
     opacity="0.1"
     id="ellipse260" />
  <rect
     x="598.74"
     y="322.19"
     width="18.64"
     height="36.33"
     transform="translate(-93.67 620.41) rotate(-61.58)"
     fill="#8ed16f"
     id="rect262" />
  <ellipse
     cx="607.95"
     cy="340.56"
     rx="3.82"
     ry="7.65"
     transform="matrix(0.48, -0.88, 0.88, 0.48, -93.91, 620.42)"
     fill="#8ed16f"
     id="ellipse264" />
  <ellipse
     cx="607.95"
     cy="340.56"
     rx="3.82"
     ry="7.65"
     transform="matrix(0.48, -0.88, 0.88, 0.48, -93.91, 620.42)"
     opacity="0.1"
     id="ellipse266" />
  <rect
     x="572.92"
     y="709.89"
     width="18.64"
     height="36.33"
     transform="translate(-448.18 800.89) rotate(-61.58)"
     fill="#8ed16f"
     id="rect268" />
  <ellipse
     cx="582.13"
     cy="728.27"
     rx="3.82"
     ry="7.65"
     transform="translate(-448.43 800.9) rotate(-61.58)"
     fill="#8ed16f"
     id="ellipse270" />
  <ellipse
     cx="582.13"
     cy="728.27"
     rx="3.82"
     ry="7.65"
     transform="translate(-448.43 800.9) rotate(-61.58)"
     opacity="0.1"
     id="ellipse272" />
  <rect
     x="554.27"
     y="711.81"
     width="18.64"
     height="36.33"
     transform="translate(-369.92 1058.26) rotate(-79.49)"
     fill="#8ed16f"
     id="rect274" />
  <rect
     x="554.27"
     y="711.81"
     width="18.64"
     height="36.33"
     transform="translate(-369.92 1058.26) rotate(-79.49)"
     opacity="0.05"
     id="rect276" />
  <ellipse
     cx="563.55"
     cy="730.21"
     rx="3.82"
     ry="7.65"
     transform="translate(-370.18 1058.41) rotate(-79.49)"
     fill="#8ed16f"
     id="ellipse278" />
  <ellipse
     cx="563.55"
     cy="730.21"
     rx="3.82"
     ry="7.65"
     transform="translate(-370.18 1058.41) rotate(-79.49)"
     opacity="0.1"
     id="ellipse280" />
  <rect
     x="557.62"
     y="722.8"
     width="18.64"
     height="36.33"
     transform="translate(-377.99 1070.54) rotate(-79.49)"
     fill="#8ed16f"
     id="rect282" />
  <ellipse
     cx="566.9"
     cy="741.2"
     rx="3.82"
     ry="7.65"
     transform="translate(-378.26 1070.69) rotate(-79.49)"
     fill="#8ed16f"
     id="ellipse284" />
  <ellipse
     cx="566.9"
     cy="741.2"
     rx="3.82"
     ry="7.65"
     transform="translate(-378.26 1070.69) rotate(-79.49)"
     opacity="0.1"
     id="ellipse286" />
  <rect
     x="610.61"
     y="757.01"
     width="18.64"
     height="36.33"
     transform="translate(-469.87 858.73) rotate(-61.58)"
     fill="#8ed16f"
     id="rect288" />
  <ellipse
     cx="619.82"
     cy="775.39"
     rx="3.82"
     ry="7.65"
     transform="translate(-470.11 858.74) rotate(-61.58)"
     fill="#8ed16f"
     id="ellipse290" />
  <ellipse
     cx="619.82"
     cy="775.39"
     rx="3.82"
     ry="7.65"
     transform="translate(-470.11 858.74) rotate(-61.58)"
     opacity="0.1"
     id="ellipse292" />
  <rect
     x="591.97"
     y="758.92"
     width="18.64"
     height="36.33"
     transform="translate(-385.42 1133.84) rotate(-79.49)"
     fill="#8ed16f"
     id="rect294" />
  <rect
     x="591.97"
     y="758.92"
     width="18.64"
     height="36.33"
     transform="translate(-385.42 1133.84) rotate(-79.49)"
     opacity="0.05"
     id="rect296" />
  <ellipse
     cx="601.25"
     cy="777.32"
     rx="3.82"
     ry="7.65"
     transform="translate(-385.69 1133.99) rotate(-79.49)"
     fill="#8ed16f"
     id="ellipse298" />
  <ellipse
     cx="601.25"
     cy="777.32"
     rx="3.82"
     ry="7.65"
     transform="translate(-385.69 1133.99) rotate(-79.49)"
     opacity="0.1"
     id="ellipse300" />
  <rect
     x="595.31"
     y="769.92"
     width="18.64"
     height="36.33"
     transform="translate(-393.5 1146.12) rotate(-79.49)"
     fill="#8ed16f"
     id="rect302" />
  <ellipse
     cx="604.59"
     cy="788.32"
     rx="3.82"
     ry="7.65"
     transform="translate(-393.76 1146.27) rotate(-79.49)"
     fill="#8ed16f"
     id="ellipse304" />
  <ellipse
     cx="604.59"
     cy="788.32"
     rx="3.82"
     ry="7.65"
     transform="translate(-393.76 1146.27) rotate(-79.49)"
     opacity="0.1"
     id="ellipse306" />
  <rect
     x="667.15"
     y="726.65"
     width="18.64"
     height="36.33"
     transform="translate(-413.53 892.54) rotate(-61.58)"
     fill="#8ed16f"
     id="rect308" />
  <ellipse
     cx="676.36"
     cy="745.02"
     rx="3.82"
     ry="7.65"
     transform="translate(-413.78 892.55) rotate(-61.58)"
     fill="#8ed16f"
     id="ellipse310" />
  <ellipse
     cx="676.36"
     cy="745.02"
     rx="3.82"
     ry="7.65"
     transform="translate(-413.78 892.55) rotate(-61.58)"
     opacity="0.1"
     id="ellipse312" />
  <rect
     x="648.51"
     y="728.56"
     width="18.64"
     height="36.33"
     transform="translate(-309.34 1164.61) rotate(-79.49)"
     fill="#8ed16f"
     id="rect314" />
  <rect
     x="648.51"
     y="728.56"
     width="18.64"
     height="36.33"
     transform="translate(-309.34 1164.61) rotate(-79.49)"
     opacity="0.05"
     id="rect316" />
  <ellipse
     cx="657.79"
     cy="746.96"
     rx="3.82"
     ry="7.65"
     transform="translate(-309.61 1164.76) rotate(-79.49)"
     fill="#8ed16f"
     id="ellipse318" />
  <ellipse
     cx="657.79"
     cy="746.96"
     rx="3.82"
     ry="7.65"
     transform="translate(-309.61 1164.76) rotate(-79.49)"
     opacity="0.1"
     id="ellipse320" />
  <rect
     x="651.85"
     y="739.55"
     width="18.64"
     height="36.33"
     transform="translate(-317.41 1176.89) rotate(-79.49)"
     fill="#8ed16f"
     id="rect322" />
  <ellipse
     cx="661.13"
     cy="757.96"
     rx="3.82"
     ry="7.65"
     transform="translate(-317.68 1177.04) rotate(-79.49)"
     fill="#8ed16f"
     id="ellipse324" />
  <ellipse
     cx="661.13"
     cy="757.96"
     rx="3.82"
     ry="7.65"
     transform="translate(-317.68 1177.04) rotate(-79.49)"
     opacity="0.1"
     id="ellipse326" />
  <metadata
     id="metadata1147">
    <rdf:RDF>
      <cc:Work
         rdf:about="">
        <dc:title>make_it_rain</dc:title>
      </cc:Work>
    </rdf:RDF>
  </metadata>
  <path
     id="path1168"
     d="M 864.11914 197.33203 L 858.67383 202.77734 L 857.66602 202.77734 L 857.66602 203.78516 L 853.64844 207.80273 L 854.47266 208.50195 L 857.66602 205.30859 L 857.66602 207.36328 L 855.58594 209.44336 L 856.41211 210.14062 L 857.66602 208.88672 L 857.66602 210.93945 L 857.52344 211.08203 L 861.25781 214.24219 L 862.98438 214.24219 L 862.19336 215.0332 L 863.01953 215.73242 L 864.50977 214.24219 L 866.56055 214.24219 L 864.13086 216.67188 L 864.95703 217.37109 L 868.08594 214.24219 L 869.13086 214.24219 L 869.13086 215.25195 L 866.07031 218.3125 L 866.55078 218.7207 C 866.55078 218.7207 867.06571 218.70766 867.27734 218.70508 L 869.13086 216.85156 L 869.13086 218.63281 C 869.13953 218.63244 869.15145 218.63124 869.16016 218.63086 L 869.16016 214.23242 L 869.16016 213.18555 L 879.10742 203.24023 L 877.86719 203.24023 A 13 13 0 0 1 877.61523 203.20703 L 869.16016 211.66211 L 869.16016 209.60938 L 875.80078 202.9707 A 13 13 0 0 1 874.4668 202.7793 L 869.16016 208.08594 L 869.16016 206.0332 L 872.42773 202.76562 L 870.9043 202.76562 L 869.16016 204.50977 L 869.16016 202.76562 L 869.16016 200.22852 L 868.68359 199.95703 L 865.82812 202.8125 L 863.77344 202.8125 L 867.37891 199.20703 L 866.40234 198.64453 L 862.25 202.79688 L 860.19727 202.79688 L 865.09766 197.89453 L 864.11914 197.33203 z M 859.04883 200.34961 C 858.60453 200.55362 858.13312 200.73763 857.66602 200.92578 L 857.66602 201.73242 L 859.04883 200.34961 z M 869.13086 201.04883 L 869.13086 202.83008 L 867.35156 202.83008 L 869.13086 201.04883 z M 852.17773 202.78711 C 851.69643 202.92221 851.52604 202.96765 851.27344 203.0332 L 849.77734 204.52734 L 850.60352 205.22656 L 853.04297 202.78711 L 852.17773 202.78711 z M 855.0957 202.78711 L 851.71484 206.16797 L 852.54102 206.86523 L 856.61914 202.78711 L 855.0957 202.78711 z M 880.62695 203.24023 L 880.62695 203.78516 L 870.16992 214.24219 L 871.69336 214.24219 L 880.62695 205.30859 L 880.62695 207.36133 L 873.74609 214.24219 L 875.26953 214.24219 L 880.62695 208.88477 L 880.62695 210.93945 L 877.32422 214.24219 L 878.84766 214.24219 L 880.62695 212.46289 L 880.62695 214.24219 L 882.36914 214.24219 L 880.62695 215.98438 L 880.62695 216.48633 C 880.71226 216.43353 880.8133 216.38541 880.89062 216.33008 C 881.13381 216.15607 881.5072 216.13649 881.94336 216.19336 L 883.89258 214.24219 L 885.94531 214.24219 L 883.49609 216.69141 C 883.82978 216.83992 884.1547 216.97552 884.52734 217.18359 L 887.4707 214.24219 L 889.52344 214.24219 L 885.78906 217.97656 C 886.08857 218.17296 886.38425 218.36786 886.69727 218.5918 L 891.04688 214.24219 L 892.0918 214.24219 L 892.0918 213.19727 L 901.44727 203.84375 A 13 13 0 0 0 900.13086 203.63672 L 892.0918 211.67383 L 892.0918 209.61914 L 898.35352 203.35938 A 13 13 0 0 0 897.59766 203.24023 L 896.94922 203.24023 L 892.0918 208.0957 L 892.0918 206.04297 L 894.89648 203.24023 L 893.37305 203.24023 L 892.0918 204.51953 L 892.0918 203.24023 L 880.62695 203.24023 z M 902.8457 204.48828 L 893.10156 214.23242 L 894.625 214.23242 L 903.55859 205.29883 L 903.55859 207.35156 L 896.67773 214.23242 L 898.20117 214.23242 L 903.55859 208.875 L 903.55859 210.92773 L 900.25586 214.23242 L 901.7793 214.23242 L 903.55859 212.45312 L 903.55859 214.23242 L 905.30078 214.23242 L 903.55859 215.97461 L 903.55859 217.49805 L 906.82617 214.23242 L 908.87695 214.23242 L 903.55859 219.55078 L 903.55859 221.07422 L 910.40039 214.23242 L 911.10547 214.23242 C 910.27677 211.99495 909.23957 210.12807 908.16797 208.62109 A 13 13 0 0 0 902.8457 204.48828 z M 816.41992 206.90234 C 814.55776 207.69861 812.54438 208.2561 810.52148 208.62305 L 804.89258 214.25195 L 806.41602 214.25195 L 811.77344 208.89453 L 811.77344 210.94727 L 808.46875 214.25195 L 809.99219 214.25195 L 811.77344 212.47266 L 811.77344 214.25195 L 813.51367 214.25195 L 811.77344 215.99414 L 811.77344 217.51953 L 815.03906 214.25195 L 817.0918 214.25195 L 811.77344 219.57031 L 811.77344 221.09375 L 818.61719 214.25195 L 820.42383 214.25195 C 819.21873 211.79561 817.86859 209.33467 816.41992 206.90234 z M 808.13867 208.95312 C 807.56667 209.02052 807.00341 209.0768 806.44531 209.12109 L 801.31445 214.25195 L 802.83789 214.25195 L 808.13867 208.95312 z M 796.72852 209.04102 A 4.9 4.9 0 0 0 795.25781 209.14062 C 791.25711 209.92925 788.35226 211.83607 786.19336 214.26172 L 787.06055 214.26172 L 788.8418 212.48242 L 788.8418 214.26172 L 790.58398 214.26172 L 788.8418 216.00391 L 788.8418 217.5293 L 792.10742 214.26172 L 794.16016 214.26172 L 788.8418 219.58203 L 788.8418 221.10547 L 795.68555 214.26172 L 797.73828 214.26172 L 788.8418 223.1582 L 788.8418 224.68164 L 799.26172 214.26172 L 800.30664 214.26172 L 800.30664 213.2168 L 804.26562 209.25781 C 803.72963 209.27651 803.21248 209.28792 802.70898 209.29102 L 800.30664 211.69336 L 800.30664 209.63867 L 800.66797 209.27734 C 798.94917 209.22514 797.50022 209.12214 796.72852 209.04102 z M 820.50195 214.41797 L 811.77344 223.14844 L 811.77344 224.67188 L 820.99023 215.45508 C 820.82753 215.10933 820.67095 214.7643 820.50195 214.41797 z M 911.44922 215.23828 L 903.55859 223.12891 L 903.55859 224.65234 L 911.81055 216.40039 C 911.70055 215.99754 911.57302 215.62037 911.44922 215.23828 z M 892.0918 215.24023 L 887.86328 219.46875 C 888.14397 219.68859 888.42099 219.91109 888.70703 220.14844 L 892.0918 216.76367 L 892.0918 215.24023 z M 800.30664 215.25977 L 789.84961 225.71875 L 788.8418 225.71875 L 788.8418 226.72461 L 780.38672 235.17969 C 780.42522 235.97387 780.46875 236.5 780.46875 236.5 C 780.63305 236.4199 780.77044 236.37849 780.93164 236.30273 L 788.8418 228.39453 L 788.8418 230.44727 L 784.33398 234.95508 C 785.06538 234.72044 785.78811 234.49932 786.44531 234.36523 L 788.8418 231.96875 L 788.8418 234.02148 L 788.79102 234.07227 C 792.34612 233.94722 794.58444 235.44481 795.99414 237.36523 L 797.73828 237.36523 L 796.66797 238.43555 C 796.85597 238.7745 797.01887 239.11437 797.16797 239.45898 L 799.26172 237.36523 L 800.30664 237.36523 L 811.77344 237.36523 L 813.51367 237.36523 L 811.77344 239.10547 L 811.77344 240.63086 L 815.03906 237.36523 L 817.0918 237.36523 L 811.77344 242.68359 L 811.77344 244.20898 L 818.61719 237.36523 L 820.66797 237.36523 L 811.77344 246.25977 L 811.77344 247.78516 L 822.19336 237.36523 L 823.23828 237.36523 L 823.23828 238.37305 L 812.78125 248.83008 L 811.77344 248.83008 L 811.77344 249.83789 L 801.31445 260.29492 L 802.83789 260.29492 L 811.77344 251.36133 L 811.77344 253.41602 L 804.89258 260.29492 L 806.41602 260.29492 L 811.77344 254.93945 L 811.77344 256.99219 L 808.46875 260.29492 L 809.99219 260.29492 L 811.77344 258.51562 L 811.77344 260.29492 L 813.51367 260.29492 L 811.77344 262.03906 L 811.77344 263.5625 L 815.03906 260.29492 L 817.0918 260.29492 L 811.77344 265.61523 L 811.77344 267.13867 L 818.61719 260.29492 L 820.66797 260.29492 L 811.77344 269.19141 L 811.77344 270.71484 L 822.19336 260.29492 L 823.23828 260.29492 L 823.23828 261.30469 L 812.78125 271.75977 L 811.77344 271.75977 L 811.77344 271.76172 L 811.77344 272.76953 L 801.31445 283.22656 L 802.83789 283.22656 L 811.77344 274.29297 L 811.77344 276.3457 L 804.89258 283.22656 L 806.41602 283.22656 L 811.77344 277.86914 L 811.77344 279.92383 L 808.46875 283.22656 L 809.99219 283.22656 L 811.77344 281.44727 L 811.77344 283.22656 L 813.51367 283.22656 L 811.77344 284.96875 L 811.77344 286.49219 L 815.03906 283.22656 L 817.0918 283.22656 L 811.77344 288.54688 L 811.77344 290.07031 L 818.61719 283.22656 L 820.66797 283.22656 L 811.77344 292.12305 L 811.77344 293.64648 L 822.19336 283.22656 L 823.23828 283.22656 L 823.23828 284.23633 L 812.78125 294.69141 L 811.77344 294.69141 L 811.77344 295.70117 L 801.31445 306.1582 L 802.83789 306.1582 L 811.77344 297.22461 L 811.77344 299.27734 L 804.89258 306.1582 L 806.41602 306.1582 L 811.77344 300.80078 L 811.77344 302.85547 L 808.46875 306.1582 L 809.99219 306.1582 L 811.77344 304.37891 L 811.77344 306.1582 L 813.51367 306.1582 L 811.77344 307.90039 L 811.77344 309.42578 L 815.03906 306.1582 L 817.0918 306.1582 L 811.77344 311.47656 L 811.77344 313.00195 L 818.61719 306.1582 L 820.66797 306.1582 L 811.77344 315.05469 L 811.77344 316.57812 L 822.19336 306.1582 L 823.23828 306.1582 L 823.23828 307.16602 L 812.78125 317.62305 L 811.77344 317.62305 L 811.77344 318.63281 L 801.31445 329.08984 L 800.30664 329.08984 L 800.30664 328.04492 L 810.72852 317.62305 L 809.20312 317.62305 L 800.30664 326.52148 L 800.30664 324.4668 L 807.15039 317.62305 L 805.62695 317.62305 L 800.30664 322.94336 L 800.30664 320.89062 L 803.57422 317.62305 L 802.04883 317.62305 L 800.30664 319.36719 L 800.30664 317.62305 L 798.52734 317.62305 L 800.30664 315.84375 L 800.30664 314.32031 L 797.00195 317.62305 L 794.95117 317.62305 L 800.30664 312.26562 L 800.30664 310.74219 L 793.42578 317.62305 L 791.37305 317.62305 L 800.30664 308.68945 L 800.30664 307.16602 L 789.84766 317.62305 L 789.61914 317.62305 C 789.92894 321.23143 790.0066 325.16077 789.9043 329.24609 L 790.58398 329.24609 L 789.88086 329.94922 C 789.86526 330.47365 789.84902 330.99747 789.82812 331.52539 L 792.10742 329.24609 L 794.16016 329.24609 L 789.72656 333.67969 C 789.69816 334.22679 789.64255 334.77371 789.60938 335.32227 L 795.68555 329.24609 L 797.73828 329.24609 L 789.44922 337.53516 C 789.40992 338.0842 789.37342 338.62952 789.33008 339.17773 L 799.26172 329.24609 L 800.30664 329.24609 L 811.77344 329.24609 L 813.51367 329.24609 L 811.77344 330.98828 L 811.77344 332.51172 L 815.03906 329.24609 L 817.0918 329.24609 L 811.77344 334.56641 L 811.77344 336.08984 L 818.61719 329.24609 L 820.66797 329.24609 L 811.77344 338.14258 L 811.77344 339.66602 L 822.19336 329.24609 L 823.23828 329.24609 L 823.23828 330.25391 L 812.78125 340.71094 L 811.77344 340.71094 L 811.77344 341.7207 L 801.31445 352.17773 L 802.83789 352.17773 L 811.77344 343.24414 L 811.77344 345.29688 L 804.89258 352.17773 L 806.41602 352.17773 L 811.77344 346.82031 L 811.77344 348.87305 L 808.46875 352.17773 L 809.99219 352.17773 L 811.77344 350.39844 L 811.77344 352.17773 L 813.51367 352.17773 L 811.77344 353.91992 L 811.77344 355.44336 L 815.03906 352.17773 L 817.0918 352.17773 L 811.77344 357.49609 L 811.77344 359.02148 L 818.61719 352.17773 L 820.66797 352.17773 L 811.77344 361.07422 L 811.77344 362.59766 L 822.19336 352.17773 L 823.23828 352.17773 L 823.23828 353.18555 L 812.78125 363.64258 L 811.77344 363.64258 L 811.77344 364.65234 L 808.37109 368.05469 C 808.98869 367.94666 809.60526 367.83442 810.22266 367.73242 L 811.77344 366.18359 L 811.77344 367.46484 C 815.97884 366.80338 820.16359 366.25709 824.30469 365.84766 L 826.53516 363.61719 L 825.00977 363.61719 L 823.26758 365.35938 L 823.26758 363.61719 L 823.26758 352.15039 L 823.26758 351.10547 L 833.68945 340.68359 L 832.16406 340.68359 L 823.26758 349.58203 L 823.26758 347.5293 L 830.11328 340.68359 L 828.58789 340.68359 L 823.26758 346.00391 L 823.26758 343.95117 L 826.53516 340.68359 L 825.00977 340.68359 L 823.26758 342.42773 L 823.26758 340.68359 L 823.26758 329.21875 L 834.73438 329.21875 L 836.47656 329.21875 L 834.73438 330.96094 L 834.73438 332.48633 L 838 329.21875 L 840.05273 329.21875 L 834.73438 334.53906 L 834.73438 336.0625 L 841.57812 329.21875 L 843.63086 329.21875 L 834.73438 338.11523 L 834.73438 339.63867 L 845.1543 329.21875 L 846.19922 329.21875 L 846.19922 328.17383 L 856.61914 317.75391 L 855.0957 317.75391 L 846.19922 326.65039 L 846.19922 324.59766 L 853.04297 317.75391 L 851.51953 317.75391 L 846.19922 323.07227 L 846.19922 321.01953 L 849.46484 317.75391 L 847.94141 317.75391 L 846.19922 319.49609 L 846.19922 317.75391 L 846.19922 317.67969 L 844.41992 317.67969 L 846.19922 315.90039 L 846.19922 314.37695 L 842.89453 317.67969 L 840.84375 317.67969 L 846.19922 312.32422 L 846.19922 310.79883 L 839.31836 317.67969 L 837.26562 317.67969 L 846.19922 308.74805 L 846.19922 307.22266 L 835.74219 317.67969 L 834.73438 317.67969 L 834.73438 318.68945 L 824.27539 329.14648 L 823.26953 329.14648 L 823.26953 328.10156 L 833.68945 317.67969 L 832.16406 317.67969 L 823.26953 326.57812 L 823.26953 324.52344 L 830.11133 317.67969 L 828.58789 317.67969 L 823.26953 323 L 823.26953 320.94727 L 826.53516 317.67969 L 825.00977 317.67969 L 823.26953 319.42383 L 823.26953 317.67969 L 823.26953 306.21484 L 823.26953 305.16992 L 833.68945 294.74805 L 832.16406 294.74805 L 823.26953 303.64453 L 823.26953 301.59375 L 830.11133 294.74805 L 828.58789 294.74805 L 823.26953 300.06836 L 823.26953 298.01562 L 826.53516 294.74805 L 825.00977 294.74805 L 823.26953 296.49219 L 823.26953 294.74805 L 823.26953 283.2832 L 823.26953 282.23828 L 833.68945 271.81836 L 832.16406 271.81836 L 823.26953 280.71484 L 823.26953 278.66211 L 830.11133 271.81836 L 828.58789 271.81836 L 823.26953 277.13672 L 823.26953 275.08398 L 826.53516 271.81836 L 825.00977 271.81836 L 823.26953 273.56055 L 823.26953 271.81836 L 823.26953 260.35156 L 823.26953 259.30664 L 833.68945 248.88672 L 832.16406 248.88672 L 823.26953 257.7832 L 823.26953 255.73047 L 830.11133 248.88672 L 828.58789 248.88672 L 823.26953 254.20703 L 823.26953 252.1543 L 826.53516 248.88672 L 825.00977 248.88672 L 823.26953 250.62891 L 823.26953 248.88672 L 823.26953 237.42188 L 834.73633 237.36133 L 836.47852 237.36133 L 834.73633 239.10352 L 834.73633 240.62695 L 838.00195 237.36133 L 839.83594 237.36133 C 838.12974 236.17706 836.41673 234.86746 834.73633 233.46484 L 834.73633 234.02344 L 831.43164 237.32617 L 829.37891 237.32617 L 833.91602 232.79102 C 833.64442 232.55663 833.38589 232.29875 833.11719 232.05859 L 827.85547 237.32031 L 825.80273 237.32031 L 832.04688 231.07617 C 831.75838 230.80551 831.45948 230.55295 831.17578 230.27539 L 824.27734 237.17383 L 823.27148 237.17383 L 823.27148 236.12891 L 830.17383 229.22656 C 829.92363 228.96852 829.67694 228.707 829.43164 228.44336 L 823.27148 234.60547 L 823.27148 232.55078 L 828.43555 227.38672 C 828.19755 227.11553 827.98405 226.82366 827.75195 226.54688 L 823.27148 231.02734 L 823.27148 228.97461 L 826.53711 225.70898 L 825.01172 225.70898 L 823.27148 227.45117 L 823.27148 225.70898 L 823.27148 220.11133 C 823.12588 219.84817 822.97689 219.58731 822.83789 219.32031 L 816.36133 225.79688 L 814.30859 225.79688 L 822.16602 217.9375 C 822.06332 217.71652 821.95152 217.50081 821.85352 217.27734 C 821.79152 217.13544 821.71574 216.9917 821.65234 216.84961 L 812.78516 225.71875 L 811.77734 225.71875 L 811.77734 226.72461 L 801.31836 237.18359 L 800.31055 237.18359 L 800.31055 236.13867 L 810.73242 225.71875 L 809.20703 225.71875 L 800.31055 234.61328 L 800.31055 232.56055 L 807.1543 225.71875 L 805.63086 225.71875 L 800.31055 231.03711 L 800.31055 228.98438 L 803.57812 225.71875 L 802.05273 225.71875 L 800.31055 227.46094 L 800.31055 225.71875 L 798.53125 225.71875 L 800.31055 223.9375 L 800.31055 222.41406 L 797.00586 225.71875 L 794.95508 225.71875 L 800.31055 220.36133 L 800.31055 218.83594 L 793.42969 225.71875 L 791.37695 225.71875 L 800.31055 216.7832 L 800.30664 215.25977 z M 912.19727 218.06641 L 904.56641 225.69727 L 903.55859 225.69727 L 903.55859 226.70508 L 898.5293 231.73633 C 898.72954 232.10063 898.93605 232.46426 899.11523 232.83008 L 903.55859 228.38672 L 903.55859 230.43945 L 899.73438 234.26367 C 899.88357 234.63115 900.03892 234.99924 900.16211 235.36523 L 903.55859 231.9707 L 903.55859 234.02344 L 900.63477 236.94727 C 900.67003 237.10301 900.69305 237.25716 900.72266 237.41211 L 903.55859 237.41211 L 905.30078 237.41211 L 903.55859 239.1543 L 903.55859 240.67773 L 906.82617 237.41211 L 908.87695 237.41211 L 903.55859 242.73047 L 903.55859 244.25391 L 910.40039 237.41211 L 910.71094 237.41211 C 912.16904 232.59653 912.77499 228.38766 912.80859 224.71289 L 911.7207 225.80273 L 909.66602 225.80273 L 912.77734 222.69141 C 912.75234 222.19924 912.71933 221.71697 912.67383 221.24609 L 908.14258 225.77734 L 906.08984 225.77734 L 912.43945 219.42773 C 912.36645 218.96438 912.28867 218.50725 912.19727 218.06641 z M 892.0918 218.81641 L 889.80664 221.10156 C 890.0757 221.34074 890.34131 221.57033 890.61133 221.82227 L 892.0918 220.33984 L 892.0918 218.81641 z M 823.23828 220.46484 L 823.23828 222.51758 L 819.93359 225.82227 L 817.88086 225.82227 L 823.23828 220.46484 z M 892.0918 222.39453 L 891.64844 222.83789 C 891.79615 222.98443 891.94473 223.12169 892.0918 223.27148 L 892.0918 222.39453 z M 823.23828 224.06836 L 823.23828 225.84961 L 821.45898 225.84961 L 823.23828 224.06836 z M 894.32031 225.69727 C 894.48027 225.88502 894.63003 226.07881 894.78711 226.26953 L 895.35938 225.69727 L 894.32031 225.69727 z M 897.41211 225.69727 L 895.68945 227.41797 C 895.91026 227.70572 896.14541 227.98287 896.35742 228.27539 L 898.93555 225.69727 L 897.41211 225.69727 z M 900.99023 225.69727 L 897.17773 229.50781 C 897.3809 229.81359 897.5962 230.11491 897.78711 230.42383 L 902.51367 225.69727 L 900.99023 225.69727 z M 782.69531 225.7207 L 780.71289 227.70312 C 780.63379 228.30185 780.58299 228.84232 780.5332 229.40625 L 784.21875 225.7207 L 782.69531 225.7207 z M 786.27148 225.7207 L 780.40625 231.58594 C 780.38555 232.15091 780.35001 232.68209 780.34961 233.16797 L 787.79688 225.7207 L 786.27148 225.7207 z M 811.77344 228.39648 L 811.77344 230.44922 L 804.89258 237.33008 L 802.83789 237.33008 L 811.77344 228.39648 z M 811.77344 231.9707 L 811.77344 234.02344 L 808.46875 237.32812 L 806.41602 237.32812 L 811.77344 231.9707 z M 903.55859 235.54297 L 903.55859 237.32422 L 901.7793 237.32422 L 903.55859 235.54297 z M 811.77344 235.55469 L 811.77344 237.33398 L 809.99219 237.33398 L 811.77344 235.55469 z M 834.73438 235.55469 L 834.73438 237.33398 L 832.95312 237.33398 L 834.73438 235.55469 z M 839.96094 237.45312 L 834.73438 242.67969 L 834.73438 244.20508 L 840.87891 238.06055 C 840.57171 237.85441 840.26954 237.66644 839.96094 237.45312 z M 800.30664 238.38477 L 797.69336 240.99805 C 797.81136 241.39875 797.95666 241.81416 798.03516 242.17969 L 800.30664 239.9082 L 800.30664 238.38477 z M 842.11523 238.875 L 834.73438 246.25586 L 834.73438 247.78125 L 843.03516 239.48047 C 842.73216 239.29034 842.42103 239.07238 842.11523 238.875 z M 823.23828 239.91797 L 823.23828 241.9707 L 816.35742 248.85156 L 814.30469 248.85156 L 823.23828 239.91797 z M 909.84375 240.02539 L 903.55859 246.30859 L 903.55859 247.83398 L 908.94336 242.44922 C 909.26776 241.62447 909.56505 240.81966 909.84375 240.02539 z M 844.32031 240.25195 L 835.74219 248.83203 L 834.73438 248.83203 L 834.73438 249.83984 L 824.27734 260.29688 L 825.80078 260.29688 L 834.73438 251.36328 L 834.73438 253.41797 L 827.85352 260.29688 L 829.37695 260.29688 L 834.73438 254.94141 L 834.73438 256.99414 L 831.42969 260.29688 L 832.95312 260.29688 L 834.73438 258.51758 L 834.73438 260.29688 L 836.47656 260.29688 L 834.73438 262.03906 L 834.73438 263.56445 L 838 260.29688 L 840.05273 260.29688 L 834.73438 265.61719 L 834.73438 267.14062 L 841.57812 260.29688 L 843.63086 260.29688 L 834.73438 269.19336 L 834.73438 270.7168 L 845.1543 260.29688 L 846.19922 260.29688 L 846.19922 259.25195 L 856.61914 248.83203 L 855.0957 248.83203 L 846.19922 257.72852 L 846.19922 255.67578 L 853.04297 248.83203 L 851.51953 248.83203 L 846.19922 254.15234 L 846.19922 252.09766 L 849.4668 248.83203 L 847.94336 248.83203 L 846.19922 250.57422 L 846.19922 248.83203 L 844.41992 248.83203 L 846.19922 247.05078 L 846.19922 245.52734 L 842.89648 248.83203 L 840.84375 248.83203 L 846.19922 243.47461 L 846.19922 241.95117 L 839.31836 248.83203 L 837.26562 248.83203 L 845.27344 240.82422 C 844.95994 240.64025 844.63891 240.44422 844.32031 240.25195 z M 800.30664 241.96094 L 798.32227 243.94531 C 798.37867 244.49362 798.39844 244.87305 798.39844 244.87305 L 798.23633 245.55469 L 800.30664 243.48438 L 800.30664 241.96094 z M 823.23828 243.51172 L 823.23828 245.56445 L 819.93359 248.86914 L 817.88086 248.86914 L 823.23828 243.51172 z M 800.30664 245.53711 L 797.60156 248.24219 L 794.45312 261.53906 L 795.68555 260.30664 L 797.73828 260.30664 L 793.83008 264.21484 C 793.74868 264.54534 793.57001 265.36011 793.37891 266.18945 L 799.26172 260.30664 L 800.30664 260.30664 L 800.30664 259.26172 L 810.72852 248.8418 L 809.20312 248.8418 L 800.30664 257.73828 L 800.30664 255.68555 L 807.15039 248.8418 L 805.62695 248.8418 L 800.30664 254.16211 L 800.30664 252.10742 L 803.57422 248.8418 L 802.04883 248.8418 L 800.30664 250.58398 L 800.30664 248.8418 L 798.52734 248.8418 L 800.30664 247.06055 L 800.30664 245.53711 z M 857.66406 246.90039 L 857.66406 247.78125 L 858.31641 247.12891 C 858.11011 247.05171 857.91668 246.99782 857.70898 246.91797 C 857.70898 246.91797 857.66506 246.90089 857.66406 246.90039 z M 823.23828 247.10547 L 823.23828 248.88477 L 821.45898 248.88477 L 823.23828 247.10547 z M 859.83789 247.65625 C 859.83926 247.65673 859.84043 247.65773 859.8418 247.6582 L 859.84375 247.65625 L 859.83789 247.65625 z M 859.8418 247.6582 L 858.67383 248.82617 L 857.66406 248.82617 L 857.66406 249.83398 L 847.20703 260.29102 L 848.73242 260.29102 L 857.66406 251.35742 L 857.66406 253.41016 L 850.78516 260.29102 L 852.30859 260.29102 L 857.66406 254.93555 L 857.66406 256.98828 L 854.36133 260.29102 L 855.88477 260.29102 L 857.66406 258.51172 L 857.66406 260.29102 L 859.4082 260.29102 L 857.66406 262.0332 L 857.66406 263.55859 L 860.93164 260.29102 L 862.98438 260.29102 L 857.66406 265.61133 L 857.66406 267.13477 L 864.50977 260.29102 L 866.56055 260.29102 L 857.66406 269.1875 L 857.66406 270.71094 L 868.08594 260.29102 L 869.13086 260.29102 L 869.13086 261.30078 L 858.67383 271.75781 L 857.66406 271.75781 L 857.66406 272.76562 L 847.20703 283.22266 L 846.19922 283.22266 L 846.19922 282.17773 L 856.61914 271.75781 L 855.0957 271.75781 L 846.19922 280.6543 L 846.19922 278.60156 L 853.04297 271.75781 L 851.51953 271.75781 L 846.19922 277.07617 L 846.19922 275.02344 L 849.4668 271.75781 L 847.94141 271.75781 L 846.19922 273.5 L 846.19922 271.75781 L 844.41992 271.75781 L 846.19922 269.97656 L 846.19922 268.45312 L 842.89453 271.75781 L 840.84375 271.75781 L 846.19922 266.40039 L 846.19922 264.87695 L 839.31836 271.75781 L 837.26562 271.75781 L 846.19922 262.82422 L 846.19922 261.30078 L 835.74219 271.75781 L 834.73438 271.75781 L 834.73438 272.76562 L 824.27539 283.22266 L 825.79883 283.22266 L 834.73438 274.28906 L 834.73438 276.3418 L 827.85352 283.22266 L 829.37695 283.22266 L 834.73438 277.86719 L 834.73438 279.91992 L 831.42969 283.22266 L 832.95312 283.22266 L 834.73438 281.44336 L 834.73438 283.22266 L 836.47656 283.22266 L 834.73438 284.9668 L 834.73438 286.49023 L 838 283.22266 L 840.05273 283.22266 L 834.73438 288.54297 L 834.73438 290.12695 L 841.57812 283.2832 L 843.63086 283.2832 L 834.73438 292.17969 L 834.73438 293.70312 L 845.1543 283.2832 L 846.19922 283.2832 L 846.19922 283.35742 L 857.66406 283.35742 L 859.4082 283.35742 L 857.66406 285.09961 L 857.66406 286.62305 L 860.93164 283.35742 L 862.98438 283.35742 L 857.66406 288.67578 L 857.66406 290.19922 L 864.50781 283.35742 L 866.56055 283.35742 L 857.66406 292.25195 L 857.66406 293.77734 L 868.08594 283.35742 L 869.13086 283.35742 L 869.13086 284.36328 L 858.67383 294.82227 L 857.66406 294.82227 L 857.66406 295.83008 L 847.20703 306.28711 L 848.73242 306.28711 L 857.66406 297.35352 L 857.66406 299.4082 L 850.78516 306.28711 L 852.30859 306.28711 L 857.66406 300.93164 L 857.66406 302.98438 L 854.36133 306.28711 L 855.88477 306.28711 L 857.66406 304.50781 L 857.66406 306.28711 L 859.4082 306.28711 L 857.66406 308.0293 L 857.66406 309.55469 L 860.93164 306.28711 L 862.98438 306.28711 L 857.66406 311.60742 L 857.66406 313.13086 L 864.50781 306.28711 L 866.56055 306.28711 L 857.66406 315.18359 L 857.66406 316.70703 L 868.08594 306.28711 L 869.13086 306.28711 L 869.13086 307.29492 L 858.67383 317.75391 L 857.66406 317.75391 L 857.66406 318.76172 L 847.25977 329.16602 L 848.80664 329.16602 L 857.66406 320.30664 L 857.66406 322.35938 L 850.85938 329.16602 L 852.38477 329.16602 L 857.66406 323.88477 L 857.66406 325.9375 L 854.4375 329.16602 L 855.96094 329.16602 L 857.66406 327.46289 L 857.66406 329.16602 L 859.4082 329.16602 L 857.66406 330.9082 L 857.66406 332.43164 L 860.93164 329.16602 L 862.98438 329.16602 L 857.66406 334.48438 L 857.66406 336.00977 L 864.50781 329.16602 L 866.5625 329.16602 L 857.66406 338.06055 L 857.66406 339.58594 L 868.08594 329.29297 L 869.13086 329.29297 L 869.13086 330.29883 L 858.67383 340.75781 L 857.66406 340.75781 L 857.66406 341.76562 L 847.20898 352.22266 L 848.73242 352.22266 L 857.66406 343.28906 L 857.66406 345.34375 L 850.78516 352.22266 L 852.30859 352.22266 L 857.66406 346.86719 L 857.66406 348.91992 L 854.36133 352.22266 L 855.88477 352.22266 L 857.66406 350.44336 L 857.66406 352.22266 L 859.4082 352.22266 L 857.66406 353.96484 L 857.66406 355.49023 L 860.93164 352.22266 L 862.98438 352.22266 L 857.66406 357.54297 L 857.66406 359.06641 L 864.50781 352.22266 L 866.5625 352.22266 L 857.66406 361.11914 L 857.66406 362.64258 L 868.08594 352.22266 L 869.13086 352.22266 L 869.13086 353.23242 L 858.67383 363.68945 L 857.66406 363.68945 L 857.66406 364.69727 L 857.6543 364.70312 C 861.7252 364.80327 865.56075 364.97327 869.15625 365.19531 L 869.15625 363.71094 L 869.15625 352.24414 L 869.15625 351.19922 L 879.57812 340.77734 L 878.05273 340.77734 L 869.15625 349.67578 L 869.15625 347.62109 L 876 340.77734 L 874.47656 340.77734 L 869.15625 346.09766 L 869.15625 344.04492 L 872.42383 340.77734 L 870.90039 340.77734 L 869.15625 342.52148 L 869.15625 340.77734 L 869.15625 329.3125 L 880.62305 329.3125 L 882.36523 329.3125 L 880.62305 331.05469 L 880.62305 332.58008 L 883.88867 329.3125 L 885.94141 329.3125 L 880.62305 334.63086 L 880.62305 336.15625 L 887.4668 329.3125 L 889.51953 329.3125 L 880.62305 338.20898 L 880.62305 339.73242 L 891.04297 329.3125 L 892.08789 329.3125 L 894.73438 329.3125 C 894.73418 329.2876 894.73448 329.26133 894.73438 329.23633 L 894.62109 329.23633 L 894.73438 329.12305 C 894.73438 328.62265 894.73418 328.10102 894.73438 327.5957 L 893.09961 329.23047 L 892.08984 329.23047 L 892.08984 328.18555 L 894.73438 325.54102 C 894.73478 325.03086 894.73437 324.53195 894.73438 324.01758 L 892.08984 326.66211 L 892.08984 324.60742 L 894.73242 321.96484 C 894.73242 321.4533 894.74791 320.93293 894.75391 320.41797 L 892.08789 323.08398 L 892.08789 321.03125 L 894.79688 318.32227 C 894.79688 318.13699 894.80859 317.94932 894.80859 317.76367 L 893.83398 317.76367 L 892.08789 319.50781 L 892.08789 317.76367 L 890.30859 317.76367 L 892.08789 315.98438 L 892.08789 314.46094 L 888.78711 317.76367 L 886.73242 317.76367 L 892.08789 312.40625 L 892.08789 310.88281 L 885.20898 317.76367 L 883.1543 317.76367 L 892.08789 308.83008 L 892.08789 307.30664 L 881.63281 317.76367 L 880.625 317.76367 L 880.625 318.77344 L 870.16797 329.23047 L 869.1582 329.23047 L 869.1582 328.18555 L 879.58008 317.76367 L 878.05469 317.76367 L 869.1582 326.66211 L 869.1582 324.60742 L 876 317.76367 L 874.47852 317.76367 L 869.1582 323.08398 L 869.1582 321.03125 L 872.42578 317.76367 L 870.90039 317.76367 L 869.1582 319.50781 L 869.1582 317.76367 L 869.1582 306.29883 L 869.1582 305.25391 L 879.58008 294.83203 L 878.05469 294.83203 L 869.1582 303.72852 L 869.1582 301.67578 L 876 294.83203 L 874.47852 294.83203 L 869.1582 300.15234 L 869.1582 298.09961 L 872.42578 294.83203 L 870.90039 294.83203 L 869.1582 296.57617 L 869.1582 294.83203 L 869.1582 283.36719 L 880.625 283.33789 L 882.36719 283.33789 L 880.625 285.08008 L 880.625 286.60352 L 883.89062 283.33789 L 885.94141 283.33789 L 880.625 288.65625 L 880.625 290.17969 L 887.4668 283.33789 L 889.52148 283.33789 L 880.625 292.23438 L 880.625 293.75781 L 891.04492 283.33789 L 892.08789 283.33789 L 897.08789 283.33789 C 897.10989 283.16678 897.12544 282.98912 897.14844 282.81836 L 896.67578 283.29102 L 894.62305 283.29102 L 897.50391 280.41016 C 897.59191 279.79069 897.69937 279.19388 897.79297 278.58008 L 893.09961 283.27344 L 892.08984 283.27344 L 892.08984 282.22852 L 898.17969 276.13867 C 898.27969 275.53961 898.3619 274.92051 898.4668 274.32812 L 892.08984 280.70508 L 892.08984 278.65234 L 898.91016 271.83203 C 898.91116 271.82403 898.91016 271.81639 898.91016 271.80859 L 897.40625 271.80859 L 892.08594 277.12695 L 892.08594 275.07422 L 895.35352 271.80859 L 893.83008 271.80859 L 892.08594 273.55078 L 892.08594 271.80859 L 890.30664 271.80859 L 892.08594 270.02734 L 892.08594 268.50391 L 888.7832 271.80859 L 886.73047 271.80859 L 892.08594 266.45117 L 892.08594 264.92773 L 885.20508 271.80859 L 883.1543 271.80859 L 892.08594 262.87305 L 892.08594 261.34961 L 881.62891 271.80859 L 880.62109 271.80859 L 880.62109 272.81641 L 870.16406 283.27344 L 869.1543 283.27344 L 869.1543 282.22852 L 879.57617 271.80859 L 878.05078 271.80859 L 869.1543 280.70508 L 869.1543 278.65234 L 875.99805 271.80859 L 874.47461 271.80859 L 869.1543 277.12695 L 869.1543 275.07422 L 872.42188 271.80859 L 870.89844 271.80859 L 869.1543 273.55078 L 869.1543 271.80859 L 869.1543 260.3418 L 869.1543 259.29688 L 877.33789 251.11523 C 876.86769 251.09843 876.37913 251.0638 875.89453 251.0332 L 869.1543 257.77344 L 869.1543 255.71875 L 873.98438 250.89062 C 873.54488 250.84682 873.08291 250.77473 872.63281 250.71875 L 869.1543 254.19531 L 869.1543 252.14453 L 870.81055 250.48828 C 870.39335 250.42228 869.95304 250.32306 869.52734 250.24609 L 869.1543 250.61914 L 869.1543 250.17383 C 867.0355 249.77674 864.83583 249.26892 862.51953 248.56641 L 862.24414 248.8418 L 860.19141 248.8418 L 860.98047 248.05273 C 860.60492 247.92914 860.22205 247.79072 859.8418 247.6582 z M 893.83594 248.82227 L 892.0918 250.56445 L 892.0918 249.31641 C 888.9815 250.26839 884.66601 251.12143 879.31641 251.14062 L 870.16992 260.28711 L 871.69336 260.28711 L 880.62695 251.35352 L 880.62695 253.4082 L 873.74609 260.28711 L 875.26953 260.28711 L 880.62695 254.93164 L 880.62695 256.98438 L 877.32422 260.28711 L 878.84766 260.28711 L 880.62695 258.50781 L 880.62695 260.28711 L 882.36914 260.28711 L 880.62695 262.0293 L 880.62695 263.55469 L 883.89258 260.28711 L 885.94531 260.28711 L 880.62695 265.60742 L 880.62695 267.13086 L 887.4707 260.28711 L 889.52344 260.28711 L 880.62695 269.18359 L 880.62695 270.70703 L 891.04688 260.28711 L 892.0918 260.28711 L 892.0918 259.24219 L 902.51367 248.82227 L 900.99023 248.82227 L 892.0918 257.71875 L 892.0918 255.66602 L 898.93555 248.82227 L 897.41211 248.82227 L 892.0918 254.14258 L 892.0918 252.08789 L 895.35938 248.82227 L 893.83594 248.82227 z M 800.30664 261.36523 L 792.78516 268.88867 C 792.66666 269.45409 792.5314 270.15775 792.4043 270.79102 L 800.30664 262.88867 L 800.30664 261.36523 z M 869.13086 262.89062 L 869.13086 264.94336 L 862.25 271.82422 L 860.19727 271.82422 L 869.13086 262.89062 z M 823.23828 262.89648 L 823.23828 264.94922 L 816.35742 271.83008 L 814.30469 271.83008 L 823.23828 262.89648 z M 800.30664 264.94141 L 793.42578 271.82422 L 792.19922 271.82422 C 791.56542 275.0638 790.90707 278.93203 790.29688 283.28906 L 790.58398 283.28906 L 790.25391 283.61914 C 790.17401 284.19651 790.09974 284.78313 790.02344 285.37305 L 792.10742 283.28906 L 794.16016 283.28906 L 789.71289 287.73633 C 789.64569 288.31548 789.57988 288.86965 789.51758 289.45703 L 795.68555 283.28906 L 797.73828 283.28906 L 789.33203 291.69531 C 789.28093 292.24654 789.23903 292.80171 789.19336 293.35742 L 799.26172 283.28906 L 800.30664 283.28906 L 800.30664 282.24414 L 810.72852 271.82422 L 809.20312 271.82422 L 800.30664 280.71875 L 800.30664 278.66602 L 807.15039 271.82422 L 805.62695 271.82422 L 800.30664 277.14258 L 800.30664 275.08984 L 803.57422 271.82422 L 802.04883 271.82422 L 800.30664 273.56641 L 800.30664 271.82422 L 798.52734 271.82422 L 800.30664 270.04297 L 800.30664 268.51953 L 797.00195 271.82422 L 794.95117 271.82422 L 800.30664 266.4668 L 800.30664 264.94141 z M 869.13086 266.47266 L 869.13086 268.52539 L 865.82812 271.83008 L 863.77344 271.83008 L 869.13086 266.47266 z M 823.23828 266.47656 L 823.23828 268.5293 L 819.93359 271.83203 L 817.88086 271.83203 L 823.23828 266.47656 z M 869.13086 270.05078 L 869.13086 271.83203 L 867.35156 271.83203 L 869.13086 270.05078 z M 823.23828 270.05469 L 823.23828 271.83398 L 821.45898 271.83398 L 823.23828 270.05469 z M 880.62695 274.35938 L 880.62695 276.41211 L 873.74609 283.29297 L 871.69336 283.29297 L 880.62695 274.35938 z M 857.66406 274.36523 L 857.66406 276.41602 L 850.78516 283.29688 L 848.73242 283.29688 L 857.66406 274.36523 z M 880.62695 277.9375 L 880.62695 279.99023 L 877.32422 283.29492 L 875.26953 283.29492 L 880.62695 277.9375 z M 857.66406 277.94141 L 857.66406 279.99414 L 854.36133 283.29883 L 852.30859 283.29883 L 857.66406 277.94141 z M 880.62695 281.51562 L 880.62695 283.29492 L 878.84766 283.29492 L 880.62695 281.51562 z M 857.66406 281.51953 L 857.66406 283.29883 L 855.88477 283.29883 L 857.66406 281.51953 z M 846.19922 284.30859 L 835.74219 294.76562 L 834.73438 294.76562 L 834.73438 295.77344 L 824.27734 306.23242 L 825.80078 306.23242 L 834.73438 297.29688 L 834.73438 299.34961 L 827.85352 306.23242 L 829.37695 306.23242 L 834.73438 300.87305 L 834.73438 302.92773 L 831.42969 306.23242 L 832.95312 306.23242 L 834.73438 304.45117 L 834.73438 306.23242 L 836.47656 306.23242 L 834.73438 307.97461 L 834.73438 309.49805 L 838 306.23242 L 840.05273 306.23242 L 834.73438 311.55078 L 834.73438 313.07422 L 841.57812 306.23242 L 843.63086 306.23242 L 834.73438 315.12891 L 834.73438 316.65234 L 845.1543 306.23242 L 846.19922 306.23242 L 846.19922 305.25781 L 856.61914 294.83789 L 855.0957 294.83789 L 846.19922 303.73438 L 846.19922 301.68164 L 853.04297 294.83789 L 851.51953 294.83789 L 846.19922 300.1582 L 846.19922 298.10547 L 849.4668 294.83789 L 847.94336 294.83789 L 846.19922 296.58203 L 846.19922 294.83789 L 846.19922 294.76562 L 844.41992 294.76562 L 846.19922 292.98633 L 846.19922 291.46289 L 842.89648 294.76562 L 840.84375 294.76562 L 846.19922 289.4082 L 846.19922 287.88477 L 839.31836 294.76562 L 837.26562 294.76562 L 846.19922 285.83203 L 846.19922 284.30859 z M 800.30664 284.3125 L 789.84961 294.76953 L 789.07812 294.76953 C 789.00413 295.7841 788.8942 296.77163 788.8418 297.79297 L 788.8418 299.35352 L 788.7832 299.41211 C 788.7627 299.94044 788.73831 300.46816 788.72461 300.99609 L 788.8418 300.87891 L 788.8418 302.93164 L 788.69531 303.07812 C 788.69131 303.58702 788.69427 304.09301 788.69727 304.59961 L 788.8418 304.45508 L 788.8418 306.23633 L 790.58398 306.23633 L 788.8418 307.97852 L 788.8418 309.26562 C 788.8458 309.34073 788.84656 309.41723 788.85156 309.49219 L 792.10742 306.23633 L 794.16016 306.23633 L 788.99219 311.4043 C 789.03179 311.87041 789.08449 312.32721 789.13281 312.78711 L 795.68555 306.23633 L 797.73828 306.23633 L 789.32227 314.65039 C 789.38107 315.09381 789.41097 315.58041 789.46094 316.03711 L 799.26172 306.23633 L 800.30664 306.23633 L 800.30664 305.18945 L 810.72852 294.76953 L 809.20312 294.76953 L 800.30664 303.66602 L 800.30664 301.61133 L 807.15039 294.76953 L 805.62695 294.76953 L 800.30664 300.08789 L 800.30664 298.03711 L 803.57422 294.76953 L 802.04883 294.76953 L 800.30664 296.51172 L 800.30664 294.76953 L 798.52734 294.76953 L 800.30664 292.99023 L 800.30664 291.46484 L 797.00195 294.76953 L 794.95117 294.76953 L 800.30664 289.41211 L 800.30664 287.88867 L 793.42578 294.76953 L 791.37305 294.76953 L 800.30664 285.83594 L 800.30664 284.3125 z M 892.0918 284.37891 L 881.63477 294.80664 L 880.62695 294.80664 L 880.62695 295.81445 L 870.16992 306.27344 L 871.69336 306.27344 L 880.62695 297.33789 L 880.62695 299.39258 L 873.74609 306.27344 L 875.26953 306.27344 L 880.62695 300.91602 L 880.62695 302.96875 L 877.32422 306.27344 L 878.84766 306.27344 L 880.62695 304.49219 L 880.62695 306.27344 L 882.36914 306.27344 L 880.62695 308.01367 L 880.62695 309.57031 L 883.89258 306.30273 L 885.94531 306.30273 L 880.62695 311.62109 L 880.62695 313.14648 L 887.4707 306.30273 L 889.52344 306.30273 L 880.62695 315.19922 L 880.62695 316.72461 L 891.04688 306.30273 L 892.0918 306.30273 L 892.0918 305.25781 L 895.37891 301.9707 C 895.41091 301.42103 895.4649 300.87578 895.5 300.32617 L 892.0918 303.73438 L 892.0918 301.67969 L 895.66797 298.10547 C 895.70697 297.55578 895.74892 297.0079 895.79102 296.45898 L 892.0918 300.15625 L 892.0918 298.10547 L 895.35938 294.83789 L 893.83594 294.83789 L 892.0918 296.58008 L 892.0918 294.83789 L 890.3125 294.83789 L 892.0918 293.05859 L 892.0918 291.5332 L 888.78906 294.83789 L 886.73438 294.83789 L 892.0918 289.48047 L 892.0918 287.95508 L 885.21094 294.83789 L 883.1582 294.83789 L 892.0918 285.9043 L 892.0918 284.37891 z M 823.23828 285.83789 L 823.23828 287.89062 L 816.35742 294.77148 L 814.30469 294.77148 L 823.23828 285.83789 z M 869.13086 285.90625 L 869.13086 287.95898 L 862.25 294.83984 L 860.19727 294.83984 L 869.13086 285.90625 z M 823.23828 289.41406 L 823.23828 291.4668 L 819.93359 294.76953 L 817.88086 294.76953 L 823.23828 289.41406 z M 869.13086 289.48438 L 869.13086 291.53906 L 865.82812 294.84375 L 863.77344 294.84375 L 869.13086 289.48438 z M 823.23828 292.99414 L 823.23828 294.77344 L 821.45898 294.77344 L 823.23828 292.99414 z M 869.13086 293.06445 L 869.13086 294.8457 L 867.35156 294.8457 L 869.13086 293.06445 z M 895.2832 304.09375 L 893.10156 306.27539 L 894.625 306.27539 L 895.21094 305.68945 C 895.23694 305.15641 895.2552 304.62738 895.2832 304.09375 z M 823.23828 308.77344 L 823.23828 310.82617 L 816.35742 317.70703 L 814.30469 317.70703 L 823.23828 308.77344 z M 869.13086 308.84375 L 869.13086 310.89648 L 862.25 317.77734 L 860.19727 317.77734 L 869.13086 308.84375 z M 823.23828 312.34961 L 823.23828 314.4043 L 819.93359 317.70703 L 817.88086 317.70703 L 823.23828 312.34961 z M 869.13086 312.41797 L 869.13086 314.47266 L 865.82812 317.77539 L 863.77344 317.77539 L 869.13086 312.41797 z M 823.23828 315.92578 L 823.23828 317.70703 L 821.45898 317.70703 L 823.23828 315.92578 z M 869.13086 315.99609 L 869.13086 317.77734 L 867.35156 317.77734 L 869.13086 315.99609 z M 834.73438 320.23633 L 834.73438 322.28906 L 827.85352 329.16992 L 825.80078 329.16992 L 834.73438 320.23633 z M 811.77344 320.24219 L 811.77344 322.29492 L 804.89258 329.17578 L 802.83789 329.17578 L 811.77344 320.24219 z M 880.62695 320.30859 L 880.62695 322.36133 L 873.74609 329.24219 L 871.69336 329.24219 L 880.62695 320.30859 z M 834.73438 323.81641 L 834.73438 325.86914 L 831.42969 329.17188 L 829.37695 329.17188 L 834.73438 323.81641 z M 811.77344 323.82031 L 811.77344 325.87305 L 808.46875 329.17578 L 806.41602 329.17578 L 811.77344 323.82031 z M 880.62695 323.88672 L 880.62695 325.93945 L 877.32422 329.24414 L 875.26953 329.24414 L 880.62695 323.88672 z M 834.73438 327.39453 L 834.73438 329.17383 L 832.95312 329.17383 L 834.73438 327.39453 z M 811.77344 327.39844 L 811.77344 329.17773 L 809.99219 329.17773 L 811.77344 327.39844 z M 880.62695 327.46484 L 880.62695 329.24414 L 878.84766 329.24414 L 880.62695 327.46484 z M 846.19922 330.25781 L 835.74219 340.71484 L 834.73438 340.71484 L 834.73438 341.72266 L 824.27734 352.18164 L 825.80078 352.18164 L 834.73438 343.24609 L 834.73438 345.29883 L 827.85352 352.18164 L 829.37695 352.18164 L 834.73438 346.82227 L 834.73438 348.87695 L 831.42969 352.18164 L 832.95312 352.18164 L 834.73438 350.40039 L 834.73438 352.18164 L 836.47656 352.18164 L 834.73438 353.92383 L 834.73438 355.44727 L 838 352.18164 L 840.05273 352.18164 L 834.73438 357.5 L 834.73438 359.02344 L 841.57812 352.18164 L 843.63086 352.18164 L 834.73438 361.07812 L 834.73438 362.60156 L 845.1543 352.18164 L 846.19922 352.18164 L 846.19922 351.20703 L 856.61914 340.78711 L 855.0957 340.78711 L 846.19922 349.68359 L 846.19922 347.63086 L 853.04297 340.78711 L 851.51953 340.78711 L 846.19922 346.10742 L 846.19922 344.05469 L 849.4668 340.78711 L 847.94336 340.78711 L 846.19922 342.53125 L 846.19922 340.78711 L 846.19922 340.71484 L 844.41992 340.71484 L 846.19922 338.93555 L 846.19922 337.41211 L 842.89648 340.71484 L 840.84375 340.71484 L 846.19922 335.35742 L 846.19922 333.83398 L 839.31836 340.71484 L 837.26562 340.71484 L 846.19922 331.78125 L 846.19922 330.25781 z M 800.30664 330.26172 L 789.84961 340.71875 L 789.21875 340.71875 C 789.09925 342.11134 788.9821 343.45407 788.8418 344.82422 L 788.8418 345.30273 L 788.78125 345.36328 C 788.72045 345.9458 788.65364 346.50411 788.58984 347.08008 L 788.8418 346.82812 L 788.8418 348.88086 L 788.33008 349.39258 C 788.26298 349.9571 788.20767 350.55236 788.13867 351.10742 L 788.8418 350.4043 L 788.8418 352.18555 L 790.58398 352.18555 L 788.8418 353.92773 L 788.8418 355.45117 L 792.10742 352.18555 L 794.16016 352.18555 L 788.8418 357.50391 L 788.8418 359.02734 L 795.68555 352.18555 L 797.73828 352.18555 L 788.8418 361.08008 L 788.8418 362.60547 L 799.26172 352.18555 L 800.30664 352.18555 L 800.30664 351.13867 L 810.72656 340.71875 L 809.20312 340.71875 L 800.30664 349.61523 L 800.30664 347.56055 L 807.15039 340.71875 L 805.62695 340.71875 L 800.30664 346.03711 L 800.30664 343.98633 L 803.57422 340.71875 L 802.04883 340.71875 L 800.30664 342.46094 L 800.30664 340.71875 L 798.52734 340.71875 L 800.30664 338.93945 L 800.30664 337.41406 L 797.00195 340.71875 L 794.95117 340.71875 L 800.30664 335.36133 L 800.30664 333.83789 L 793.42578 340.71875 L 791.37305 340.71875 L 800.30664 331.78516 L 800.30664 330.26172 z M 892.0918 330.32617 L 881.63477 340.60547 L 880.62695 340.60547 L 880.62695 341.61523 L 870.16992 352.07227 L 871.69336 352.07227 L 880.62695 343.13867 L 880.62695 345.19141 L 873.74609 352.07227 L 875.26953 352.07227 L 880.62695 346.71484 L 880.62695 348.76758 L 877.32422 352.07227 L 878.84766 352.07227 L 880.62695 350.29102 L 880.62695 352.07227 L 882.36914 352.07227 L 880.62695 353.81445 L 880.62695 355.33789 L 883.89258 352.07227 L 885.94531 352.07227 L 880.62695 357.39062 L 880.62695 358.91602 L 887.4707 352.07227 L 889.52344 352.07227 L 880.62695 360.96875 L 880.62695 362.49219 L 891.04688 352.07227 L 892.0918 352.07227 L 892.0918 351.02539 L 895.22461 347.89258 C 895.20461 347.41025 895.18602 346.92309 895.16602 346.42773 L 892.08984 349.50195 L 892.08984 347.44922 L 895.08594 344.45312 C 895.06794 343.94103 895.04534 343.51222 895.02734 342.98828 L 892.08984 345.92578 L 892.08984 343.87305 L 894.94922 341.01367 C 894.94922 340.86345 894.93859 340.75652 894.93359 340.60547 L 893.83398 340.60547 L 892.08984 342.34961 L 892.08984 340.60547 L 890.31055 340.60547 L 892.08984 338.82617 L 892.08984 337.30273 L 888.78711 340.60547 L 886.73242 340.60547 L 892.08984 335.25 L 892.08984 333.72461 L 885.20898 340.60547 L 883.15625 340.60547 L 892.08984 331.67188 L 892.0918 330.32617 z M 823.23828 331.78516 L 823.23828 333.83789 L 816.35742 340.71875 L 814.30469 340.71875 L 823.23828 331.78516 z M 869.13086 331.85547 L 869.13086 333.9082 L 862.25 340.78906 L 860.19727 340.78906 L 869.13086 331.85547 z M 823.23828 335.36328 L 823.23828 337.41602 L 819.93359 340.71875 L 817.88086 340.71875 L 823.23828 335.36328 z M 869.13086 335.43359 L 869.13086 337.48633 L 865.82812 340.79102 L 863.77344 340.79102 L 869.13086 335.43359 z M 823.23828 338.94141 L 823.23828 340.7207 L 821.45898 340.7207 L 823.23828 338.94141 z M 869.13086 339.01172 L 869.13086 340.79102 L 867.35156 340.79102 L 869.13086 339.01172 z M 895.31055 350.04102 L 893.10156 352.25 L 894.625 352.25 L 895.36719 351.50781 C 895.34519 351.05923 895.33255 350.50392 895.31055 350.04102 z M 846.19922 353.16406 L 835.74219 363.62305 L 834.73438 363.62305 L 834.73438 364.63086 L 834.28906 365.07617 C 838.36686 364.8394 842.32702 364.71678 846.19922 364.66211 L 846.19922 363.69531 L 846.19922 363.62305 L 844.41992 363.62305 L 846.19922 361.8418 L 846.19922 360.31836 L 842.89648 363.62305 L 840.84375 363.62305 L 846.19922 358.26562 L 846.19922 356.73828 L 839.31836 363.62109 L 837.26562 363.62109 L 846.19922 354.6875 L 846.19922 353.16406 z M 800.30664 353.19141 L 789.84766 363.64844 L 788.8418 363.64844 L 788.8418 364.6582 L 785.65039 367.84961 C 785.45199 368.98638 785.45859 368.89224 785.30469 369.72656 L 788.8418 366.18945 L 788.8418 368.24219 L 784.83984 372.24414 C 784.77874 372.55604 784.53711 373.88672 784.53711 373.88672 C 784.62581 373.85742 784.71589 373.83183 784.80469 373.80273 L 788.8418 369.76758 L 788.8418 371.82031 L 787.78516 372.875 C 792.28436 371.5031 796.84985 370.34028 801.43945 369.35938 L 807.15039 363.64844 L 805.62695 363.64844 L 800.30664 368.96875 L 800.30664 366.91602 L 803.57422 363.64844 L 802.04883 363.64844 L 800.30664 365.39258 L 800.30664 363.64844 L 798.52734 363.64844 L 800.30664 361.86914 L 800.30664 360.3457 L 797.00195 363.64844 L 794.95117 363.64844 L 800.30664 358.29102 L 800.30664 356.76758 L 793.42578 363.64844 L 791.37305 363.64844 L 800.30664 354.71484 L 800.30664 353.19141 z M 892.0918 353.25781 L 881.63477 363.7168 L 880.62695 363.7168 L 880.62695 364.72461 L 879.32031 366.03125 C 884.79001 366.55586 889.2101 367.07892 892.0918 367.49609 L 892.0918 366.98242 L 895.35938 363.7168 L 893.83594 363.7168 L 892.0918 365.45898 L 892.0918 363.7168 L 890.3125 363.7168 L 892.0918 361.93555 L 892.0918 360.41211 L 888.78906 363.7168 L 886.73438 363.7168 L 892.0918 358.35742 L 892.0918 356.83398 L 885.21094 363.7168 L 883.1582 363.7168 L 892.0918 354.78125 L 892.0918 353.25781 z M 823.23828 354.71875 L 823.23828 356.77344 L 816.35742 363.6543 L 814.30469 363.6543 L 823.23828 354.71875 z M 869.13086 354.79102 L 869.13086 356.84375 L 862.25 363.72461 L 860.19727 363.72461 L 869.13086 354.79102 z M 823.23828 358.29688 L 823.23828 360.35156 L 819.93359 363.6543 L 817.88086 363.6543 L 823.23828 358.29688 z M 869.13086 358.36719 L 869.13086 360.42188 L 865.82812 363.72656 L 863.77344 363.72656 L 869.13086 358.36719 z M 823.23828 361.875 L 823.23828 363.65625 L 821.45898 363.65625 L 823.23828 361.875 z M 869.13086 361.94531 L 869.13086 363.72656 L 867.35156 363.72656 L 869.13086 361.94531 z M 828.58789 363.62305 L 826.54297 365.66797 C 827.09937 365.61827 827.65078 365.57687 828.20508 365.53125 L 830.11328 363.62305 L 828.58789 363.62305 z M 832.16406 363.62305 L 830.44141 365.3457 C 830.99241 365.3053 831.55512 365.24359 832.10352 365.20703 L 833.68945 363.62305 L 832.16406 363.62305 z M 786.3418 363.64844 C 786.245 364.24472 786.14934 364.83515 786.05664 365.38867 L 787.79688 363.64844 L 786.3418 363.64844 z M 809.20312 363.64844 L 804.04297 368.80859 C 804.65687 368.68663 805.27047 368.60593 805.88477 368.49023 L 810.72656 363.64844 L 809.20312 363.64844 z M 847.94336 363.69531 L 846.98438 364.65234 C 847.49857 364.64634 848.0196 364.63581 848.5293 364.63281 L 849.4668 363.69531 L 847.94336 363.69531 z M 851.51953 363.69531 L 850.60938 364.60547 C 851.12148 364.60596 851.61409 364.61449 852.12109 364.61719 L 853.04297 363.69531 L 851.51953 363.69531 z M 855.0957 363.69531 L 854.14062 364.65039 C 854.64453 364.65739 855.14047 364.66678 855.63867 364.67578 L 856.61914 363.69531 L 855.0957 363.69531 z M 870.9043 363.7168 L 869.40234 365.2168 C 869.88914 365.2472 870.35533 365.2805 870.83203 365.3125 L 872.42773 363.7168 L 870.9043 363.7168 z M 874.48047 363.7168 L 872.75586 365.44141 C 873.21796 365.47531 873.73209 365.50016 874.18359 365.53516 L 876.00391 363.7168 L 874.48047 363.7168 z M 878.05664 363.7168 L 876.06055 365.71289 C 876.57405 365.75629 876.95172 365.80509 877.44922 365.84961 L 879.58203 363.7168 L 878.05664 363.7168 z M 896.15625 364.97266 L 893.45117 367.67578 C 894.23307 367.79335 894.29813 367.80588 894.76953 367.88281 L 896.26758 366.38477 C 896.22958 365.92755 896.21655 365.7635 896.15625 364.97266 z " />
</svg>
