<svg xmlns="http://www.w3.org/2000/svg" xml:space="preserve" width="800" height="800" viewBox="0 0 378.16 378.16"><path d="M94.08 20h8.355v92.505c0 5.523 4.477 10 10 10h153.29c5.523 0 10-4.477 10-10V20h8.355c5.523 0 10-4.477 10-10s-4.477-10-10-10h-190c-5.523 0-10 4.477-10 10s4.477 10 10 10m28.355 82.505V20h133.29v82.505zm217.394 84.004v-8.385c0-25.208-20.508-45.717-45.716-45.717h-5.941c-25.208 0-45.716 20.508-45.716 45.717v34.369a45.6 45.6 0 0 0-4.688-9.203v-25.166c0-25.208-20.508-45.717-45.716-45.717h-5.941c-25.208 0-45.716 20.508-45.716 45.717v25.166a45.6 45.6 0 0 0-4.688 9.203v-34.369c0-25.208-20.508-45.717-45.716-45.717H84.05c-25.208 0-45.716 20.508-45.716 45.717v8.385c-16.165 7.054-27.496 23.184-27.496 41.918v84.542c0 5.523 4.477 10 10 10H57.08v35.191h-8.749c-5.523 0-10 4.477-10 10s4.477 10 10 10h37.498c5.523 0 10-4.477 10-10s-4.477-10-10-10H77.08v-35.191h36.245c5.523 0 10-4.477 10-10v-59.956h2.38a9.97 9.97 0 0 0 7.13-2.994v62.95c0 5.523 4.477 10 10 10h36.245v35.191h-8.749c-5.523 0-10 4.477-10 10s4.477 10 10 10h37.498c5.523 0 10-4.477 10-10s-4.477-10-10-10h-8.749v-35.191h36.245c5.523 0 10-4.477 10-10v-62.95a9.97 9.97 0 0 0 7.13 2.994h2.38v59.956c0 5.523 4.477 10 10 10h36.245v35.191h-8.749c-5.523 0-10 4.477-10 10s4.477 10 10 10h37.498c5.523 0 10-4.477 10-10s-4.477-10-10-10h-8.749v-35.191h36.245c5.523 0 10-4.477 10-10v-84.542c0-18.734-11.331-34.864-27.496-41.918M30.835 302.969v-74.542c0-14.18 11.536-25.717 25.716-25.717h21.057c14.18 0 25.716 11.537 25.716 25.717v74.542zM77.608 182.71H58.331v-4.586c0-14.18 11.536-25.717 25.716-25.717h5.941c14.18 0 25.716 11.537 25.716 25.717v25.069c-8.195-12.333-22.209-20.483-38.096-20.483m108.501-30.303h5.941c14.18 0 25.716 11.537 25.716 25.717v8.357a45.4 45.4 0 0 0-18.159-3.771H178.55c-6.45 0-12.589 1.35-18.159 3.771v-8.357c.002-14.18 11.538-25.717 25.718-25.717m-33.274 76.02c0-14.18 11.536-25.717 25.716-25.717h21.057c14.18 0 25.716 11.537 25.716 25.717v74.542h-72.489zm194.49 74.542h-72.489v-74.542c0-14.18 11.536-25.717 25.716-25.717h21.057c14.18 0 25.716 11.537 25.716 25.717zm-59.154-150.562h5.941c14.18 0 25.716 11.537 25.716 25.717v4.586h-19.277c-15.886 0-29.9 8.15-38.097 20.483v-25.069c.001-14.18 11.537-25.717 25.717-25.717" style="fill:#c83737"/></svg>