<svg width="32" height="32" viewBox="0 0 8.467 8.467" xml:space="preserve" xmlns="http://www.w3.org/2000/svg"><rect style="fill:#3dafc2;fill-opacity:1;stroke:none;stroke-width:.109946" width="8.467" height="8.467" rx=".841" ry=".891"/><g style="fill:#f7bc33;fill-opacity:1"><path style="fill:#f7bc33;fill-opacity:1" d="M92.878 194.979c-13.121-1.638-23.048-7.766-26.193-16.17-1.451-3.878-2.039-8.517-1.079-8.517.246 0 2.016 1.383 3.933 3.074 4.23 3.729 7.451 5.412 12.743 6.657 11.288 2.658 24.162-3.731 29.753-14.764 2.03-4.008 3.253-7.415 3.253-12.337 0-5.13-1.224-8.789-3.181-12.506-4.175-7.93-14.349-15.974-24.067-19.032-4.268-1.343-6.992-1.652-14.265-1.62-14.894.068-26.051 4.147-34.53 12.627-7.952 7.95-11.543 17.544-11.543 30.83 0 7.461-.717 8.923-2.089 4.262-2.9-9.85-3.828-33.543-1.77-45.137 2.966-16.697 7.371-30.325 14.651-45.324 13.546-27.905 33.84-49.824 56.21-60.71 10.985-5.345 18.846-7.378 28.515-7.373 13.264.007 23.037 3.834 32.523 12.737 21.846 20.504 26.564 61.115 12.005 103.336-5.905 17.126-18.29 38.932-28.32 49.865-4.38 4.775-14.454 12.297-20.712 15.467-7.392 3.744-17.886 5.627-25.837 4.635z" transform="translate(1.033 .947) scale(.03219)"/><path style="opacity:.845;fill:#f7bc33;fill-opacity:1;fill-rule:evenodd;stroke:none;stroke-width:1;stroke-linecap:round;stroke-linejoin:miter;stroke-miterlimit:4;stroke-dasharray:none;stroke-dashoffset:0;stroke-opacity:1" d="M122.074 9.17c-2.518.013-4.882.135-6.57.379C98.542 11.999 78.7 23.69 63.557 40.156c-6.918 7.521-13.736 16.755-19.014 25.752-2.656 4.528-7.567 14.293-9.621 19.135-5.276 12.435-9.434 26.895-11.229 39.043-1.048 7.101-1.06 21.619-.023 31.484.926 8.823 2.766 15.968 3.57 13.871.1-.258.296-3.4.438-6.984.114-2.898.258-5.164.474-7.115.02-.166.042-.333.063-.496.056-.465.113-.92.18-1.354.102-.66.218-1.288.341-1.904l.002-.012c.353-1.682.82-3.255 1.45-5.04 2.232-6.328 6.17-11.952 11.357-16.358.016-.014.032-.03.049-.043.351-.298.713-.583 1.076-.87a40.412 40.412 0 0 1 1.451-1.093c4.053-2.887 8.731-5.097 13.856-6.52a55.787 55.787 0 0 1 4.357-.98c1.909-.333 4.109-.584 6.443-.75l.123-.008c4.201-.211 9.711-.206 12.862.037.13.013.27.023.398.037.47.043.899.09 1.22.145l.13.02c3.89.71 8.575 2.522 12.726 4.853a45.647 45.647 0 0 1 2.817 1.736c.206.137.412.273.613.412.397.273.786.556 1.174.84.271.2.546.4.81.603.162.124.319.254.479.38 7.254 5.74 11.752 12.597 12.855 19.624l.02.127c.074.488.135.975.176 1.463.423 5.055-.255 9.018-2.315 13.537a29.429 29.429 0 0 1-9.213 11.414 28.97 28.97 0 0 1-1.882 1.284c-.105.065-.213.127-.319.19-.466.285-.94.55-1.42.806a27.182 27.182 0 0 1-8.393 2.88c-1.187.128-2.505.185-4.165.186-1.517 0-2.478-.022-3.295-.07-.95-.13-1.9-.308-2.84-.553-2.78-.725-4.895-1.586-7.236-3.057-.128-.081-.25-.155-.381-.242-.262-.17-.533-.36-.803-.547a54.47 54.47 0 0 1-.756-.529 65.488 65.488 0 0 1-3.144-2.45c-1.644-1.353-3.134-2.46-3.313-2.46-.522 0-.541 1.977-.039 4.25 1.09 4.93 2.778 7.938 6.328 11.285 4.48 4.223 10.65 7 18.793 8.46 2.639.474 9.309.559 12.572.161 5.852-.713 12.636-2.902 17.33-5.59 5.54-3.17 13.294-9.02 17.471-13.181 8.935-8.9 20.603-28.335 27.61-45.983 4.755-11.979 8.293-26.704 9.72-40.46.533-5.134.448-19.313-.144-24.028-2.276-18.12-8.17-31.87-17.977-41.937-7.41-7.608-14.677-11.753-23.84-13.598-2.632-.53-7.257-.811-11.455-.79Z" transform="translate(1.033 .947) scale(.03219)"/></g></svg>