<svg xmlns="http://www.w3.org/2000/svg" width="125.7" height="125.6" viewBox="0 0 33.258 33.232"><path fill="#e01e5a" d="M7.011 21.008A3.49 3.49 0 0 1 3.52 24.5a3.49 3.49 0 0 1-3.493-3.492 3.49 3.49 0 0 1 3.493-3.493h3.492zm1.747 0a3.49 3.49 0 0 1 3.492-3.493 3.49 3.49 0 0 1 3.493 3.493v8.731a3.49 3.49 0 0 1-3.493 3.493 3.49 3.49 0 0 1-3.492-3.493z"/><path fill="#36c5f0" d="M12.25 6.985a3.49 3.49 0 0 1-3.492-3.493A3.49 3.49 0 0 1 12.25 0a3.49 3.49 0 0 1 3.493 3.492v3.493Zm0 1.773a3.49 3.49 0 0 1 3.493 3.492 3.49 3.49 0 0 1-3.493 3.493H3.493A3.49 3.49 0 0 1 0 12.25a3.49 3.49 0 0 1 3.493-3.492Z"/><path fill="#2eb67d" d="M26.247 12.25a3.49 3.49 0 0 1 3.492-3.492 3.49 3.49 0 0 1 3.493 3.492 3.49 3.49 0 0 1-3.493 3.493h-3.492Zm-1.747 0a3.49 3.49 0 0 1-3.492 3.493 3.49 3.49 0 0 1-3.493-3.493V3.492A3.49 3.49 0 0 1 21.008 0 3.49 3.49 0 0 1 24.5 3.492z"/><path fill="#ecb22e" d="M21.008 26.247a3.49 3.49 0 0 1 3.492 3.492 3.49 3.49 0 0 1-3.492 3.493 3.49 3.49 0 0 1-3.493-3.493v-3.492Zm0-1.747a3.49 3.49 0 0 1-3.493-3.492 3.49 3.49 0 0 1 3.493-3.493h8.758a3.49 3.49 0 0 1 3.492 3.493 3.49 3.49 0 0 1-3.492 3.492z"/></svg>