<svg width="31" height="31" viewBox="0 0 8.202 8.202" xmlns="http://www.w3.org/2000/svg"><path fill-rule="evenodd" clip-rule="evenodd" fill="#50a346" d="M101.997 105.569a4.105 4.105 0 0 1-4.101-4.101 4.088 4.088 0 0 1 4.1-4.101 4.088 4.088 0 0 1 4.102 4.1 4.105 4.105 0 0 1-4.101 4.102zm0-7.514a3.421 3.421 0 0 0-3.413 3.413 3.421 3.421 0 0 0 3.413 3.413 3.421 3.421 0 0 0 3.413-3.413 3.421 3.421 0 0 0-3.413-3.413zm2.01 3.81h-2.963a.237.237 0 0 1-.238-.239v-.344c0-.132.106-.238.238-.238h2.99c.132 0 .238.106.238.239v.343c-.026.133-.132.239-.264.239zm-.767-1.323h-2.99a.237.237 0 0 1-.238-.238v-.344c0-.106.106-.212.239-.212h2.99c.105 0 .211.106.211.212v.344c0 .132-.106.238-.212.238zm-2.99 1.852h2.99c.133 0 .239.106.239.238v.344a.237.237 0 0 1-.239.238h-2.99c-.132-.027-.238-.132-.238-.265v-.344c0-.105.106-.211.239-.211z" style="stroke-width:.264583" transform="translate(-97.896 -97.367)"/></svg>