<svg xmlns="http://www.w3.org/2000/svg" xml:space="preserve" width="16" height="16" viewBox="0 0 4.233 4.233"><path d="M.938 3.947q.255-.027.41-.06.156-.035.322-.11V1.822q0-.251-.177-.34-.167-.095-.6-.108l.034-.197q.444-.048.91-.136.477-.089.554-.102l.222.075v2.765q.278.122.777.183l-.044.231H.893Z" style="font-size:5.29431px;line-height:1;font-family:Caladea;-inkscape-font-specification:Caladea;text-align:center;text-anchor:middle;fill:#3dafc2;fill-opacity:1;stroke-width:.265002;stroke-linecap:round;stroke-linejoin:round;stroke-dashoffset:36;paint-order:stroke fill markers"/><path d="M2.057.878q-.443 0-.443-.427t.443-.427q.222 0 .333.11.12.11.12.317 0 .206-.12.317-.11.11-.333.11" style="font-size:5.29431px;line-height:1;font-family:Caladea;-inkscape-font-specification:Caladea;text-align:center;text-anchor:middle;fill:#f7bc33;fill-opacity:1;stroke-width:.265;stroke-linecap:round;stroke-linejoin:round;stroke-dashoffset:36;paint-order:stroke fill markers"/></svg>