<svg xmlns="http://www.w3.org/2000/svg" xml:space="preserve" width="508" height="145" fill="none"><path d="M152.397 51.394v5.234h-17.396v-5.234ZM136.746 18.71v37.917h-6.432V18.711Zm48.146 32.683v5.234h-18.307v-5.234ZM168.355 18.71v37.917h-6.432V18.711Zm14.115 15.81v5.156h-15.885V34.52zm2.266-15.808v5.26h-18.151v-5.26zm23.12 20.808h-8.699l-.052-4.792h7.657q1.875 0 3.177-.625 1.302-.651 1.979-1.849t.677-2.917q0-1.9-.625-3.073-.625-1.198-1.927-1.744-1.276-.547-3.307-.547h-5.651v32.656h-6.433V18.711h12.084q2.89 0 5.156.6 2.291.598 3.88 1.874t2.422 3.203q.833 1.901.833 4.558 0 2.343-1.067 4.297-1.042 1.927-3.1 3.15-2.057 1.225-5.13 1.459zm-.261 17.109h-10.52l2.942-5.234h7.578q1.953 0 3.23-.73 1.301-.729 1.952-2.03.651-1.329.651-3.074 0-1.849-.573-3.203-.573-1.38-1.797-2.11-1.197-.728-3.203-.728h-6.849l.053-4.792h8.854l1.458 1.823q2.917.078 4.792 1.354t2.76 3.307q.912 2.032.912 4.375 0 3.594-1.459 6.068-1.458 2.448-4.192 3.724-2.735 1.25-6.589 1.25m37.104-32.786-10.26 32.786h-6.745l13.15-37.917h4.246zm8.386 32.786-10.287-32.786-.443-5.13h4.297l13.177 37.916zm-.183-14.089v5.26h-19.14v-5.26zm43.615-23.828v37.917h-6.354L274.954 29.91v26.719h-6.328V18.711h6.328l15.26 26.823V18.711Zm39.942 16.901v4.245q0 4.167-1.041 7.396-1.016 3.203-2.917 5.417-1.9 2.187-4.557 3.333-2.656 1.146-5.938 1.146-3.203 0-5.885-1.146-2.656-1.146-4.583-3.333-1.927-2.214-2.995-5.417-1.042-3.23-1.042-7.396v-4.245q0-4.192 1.042-7.422 1.041-3.229 2.969-5.442 1.927-2.24 4.583-3.386 2.656-1.172 5.86-1.172 3.28 0 5.937 1.172 2.656 1.146 4.557 3.386 1.927 2.213 2.969 5.442t1.041 7.422m-6.432 4.245V35.56q0-3.047-.52-5.286-.521-2.266-1.563-3.75-1.042-1.485-2.552-2.214-1.485-.755-3.438-.755-1.9 0-3.385.755-1.485.73-2.526 2.214-1.042 1.484-1.589 3.75-.547 2.24-.547 5.286v4.297q0 3.021.547 5.26.573 2.24 1.615 3.725 1.068 1.484 2.552 2.24 1.484.728 3.385.728 1.953 0 3.438-.729 1.51-.755 2.526-2.24 1.016-1.484 1.536-3.723.521-2.24.521-5.26m45.255-21.146v37.917h-6.354l-15.208-26.72v26.719h-6.328V18.711h6.328l15.26 26.823V18.711Z" aria-label="LEBANON" style="font-weight:500;font-stretch:semi-condensed;font-size:53.3333px;line-height:1;font-family:&quot;Roboto SemiCondensed&quot;;-inkscape-font-specification:&quot;Roboto SemiCondensed, Medium Semi-Condensed&quot;;text-align:center;letter-spacing:4.5px;text-anchor:middle;fill:#384b88;stroke-width:1.00157;stroke-linecap:round;stroke-linejoin:round;stroke-dashoffset:36;paint-order:stroke fill markers"/><path d="M138.392 82.927h-5.36v-3.14h5.36q1.36 0 2.203-.5.844-.5 1.234-1.375.391-.891.391-2.016 0-1.078-.39-2.016-.391-.937-1.235-1.515t-2.203-.578h-4.219V91.38h-3.86V68.63h8.079q2.453 0 4.172.938 1.719.922 2.625 2.562t.906 3.735q0 2.203-.906 3.78-.906 1.579-2.625 2.438-1.719.844-4.172.844M163.61 68.63h3.859v15.5q0 2.594-1.047 4.282-1.047 1.671-2.844 2.484-1.78.797-3.984.797-2.266 0-4.062-.797-1.782-.813-2.797-2.484-1.016-1.688-1.016-4.282v-15.5h3.844v15.5q0 1.625.484 2.61.484.968 1.39 1.39.907.422 2.157.422t2.14-.422q.907-.422 1.391-1.39.485-.985.485-2.61zm18.359 12.485h-5.219l-.031-2.875h4.594q1.125 0 1.906-.375.781-.391 1.188-1.11.406-.718.406-1.75 0-1.14-.375-1.843-.375-.72-1.156-1.047-.766-.328-1.985-.328h-3.39V91.38h-3.86V68.63h7.25q1.735 0 3.094.36 1.375.359 2.328 1.125.953.765 1.453 1.922.5 1.14.5 2.734 0 1.406-.64 2.578-.625 1.156-1.86 1.89-1.234.735-3.078.876zm-.156 10.265H175.5l1.766-3.14h4.547q1.172 0 1.937-.438.781-.437 1.172-1.219.39-.796.39-1.843 0-1.11-.343-1.922-.344-.828-1.078-1.266-.719-.437-1.922-.437h-4.11l.032-2.875h5.312l.875 1.093q1.75.047 2.875.813t1.657 1.984q.546 1.219.546 2.625 0 2.157-.875 3.64-.875 1.47-2.515 2.235-1.64.75-3.953.75m26.953-3.14v3.14h-10.438v-3.14zm-9.39-19.61v22.75h-3.86V68.63zm18.968 0v22.75H214.5V68.63zm19.406 15.328h3.844q-.14 2.36-1.125 4.094-.969 1.735-2.766 2.688-1.796.953-4.375.953-1.953 0-3.515-.703t-2.656-2.032-1.688-3.203q-.578-1.89-.578-4.265v-2.953q0-2.375.594-4.266.609-1.89 1.718-3.219 1.125-1.328 2.704-2.031 1.593-.703 3.578-.703 2.53 0 4.28.953t2.704 2.719q.953 1.75 1.14 4.156h-3.843q-.11-1.594-.563-2.625t-1.359-1.531q-.89-.516-2.36-.516-1.202 0-2.093.453-.89.453-1.484 1.344-.579.89-.86 2.203t-.281 3.031v2.985q0 1.64.25 2.953.25 1.297.781 2.219.547.906 1.422 1.39.875.485 2.11.485 1.515 0 2.437-.47.922-.484 1.39-1.484.47-1.015.594-2.625m33.188 4.282v3.14H260.5v-3.14zm-9.39-19.61v22.75h-3.86V68.63zm18.968 0v22.75h-3.844V68.63zm15.062 12.485h-5.218l-.032-2.875h4.594q1.125 0 1.906-.375.782-.391 1.188-1.11.406-.718.406-1.75 0-1.14-.375-1.843-.375-.72-1.156-1.047-.766-.328-1.984-.328h-3.391V91.38h-3.86V68.63h7.25q1.735 0 3.094.36 1.375.359 2.328 1.125.954.765 1.454 1.922.5 1.14.5 2.734 0 1.406-.641 2.578-.625 1.156-1.86 1.89-1.234.735-3.078.876zm-.156 10.265h-6.312l1.765-3.14h4.547q1.172 0 1.938-.438.78-.437 1.172-1.219.39-.796.39-1.843 0-1.11-.344-1.922-.343-.828-1.078-1.266-.718-.437-1.922-.437h-4.109l.031-2.875h5.313l.875 1.093q1.75.047 2.875.813t1.656 1.984q.547 1.219.547 2.625 0 2.157-.875 3.64-.875 1.47-2.516 2.235-1.64.75-3.953.75m13.703-22.75h7.469q2.422 0 4.11.782 1.703.78 2.593 2.312.906 1.516.906 3.75 0 1.719-.562 3.016t-1.625 2.187q-1.047.875-2.5 1.344l-1.14.594h-6.532l-.031-3.141h4.765q1.266 0 2.094-.484.844-.5 1.266-1.36t.422-1.953q0-1.187-.407-2.062-.39-.875-1.218-1.344-.828-.484-2.14-.484h-3.61V91.38h-3.86zm11.797 22.75-4.844-10.218 4.047-.016 4.922 10.031v.203zm17.828-19.672-6.156 19.672h-4.047l7.89-22.75h2.548zm5.032 19.672-6.172-19.672-.266-3.078h2.578l7.906 22.75zm-.11-8.453v3.156H332.19v-3.156zm9.235-14.297h7.468q2.422 0 4.11.782 1.703.78 2.593 2.312.907 1.516.907 3.75 0 1.719-.563 3.016t-1.625 2.187q-1.047.875-2.5 1.344l-1.14.594h-6.532l-.03-3.141h4.765q1.265 0 2.093-.484.844-.5 1.266-1.36t.422-1.953q0-1.187-.406-2.062-.39-.875-1.22-1.344-.827-.484-2.14-.484h-3.61V91.38h-3.858zm11.796 22.75-4.843-10.218 4.047-.016 4.921 10.031v.203zm13.532-22.75v22.75h-3.844V68.63zm20.922 19.61v3.14h-10.985v-3.14zm-9.922-19.61v22.75h-3.86V68.63zm8.468 9.485v3.093h-9.53v-3.093zm1.36-9.485v3.157h-10.89V68.63zm16.625 16.875q0-.687-.188-1.234-.172-.563-.64-1.016-.47-.453-1.328-.875-.844-.437-2.172-.89-1.485-.516-2.75-1.125-1.266-.625-2.22-1.422-.952-.813-1.484-1.875-.515-1.078-.515-2.485 0-1.375.531-2.515.547-1.156 1.531-1.985 1-.843 2.375-1.296 1.375-.47 3.047-.47 2.375 0 4.078.938t2.61 2.516q.922 1.578.922 3.5h-3.844q0-1.125-.406-1.984-.407-.86-1.25-1.36-.844-.5-2.157-.5-1.218 0-2.015.422t-1.188 1.14q-.39.704-.39 1.594 0 .641.28 1.157.282.515.829.953.563.437 1.39.812.829.375 1.907.735 1.75.562 3.047 1.265 1.297.688 2.156 1.563.86.86 1.281 1.953.422 1.078.422 2.453 0 1.438-.531 2.578-.516 1.14-1.516 1.953-.984.813-2.375 1.25-1.39.438-3.093.438-1.563 0-3.032-.438-1.468-.437-2.64-1.328-1.172-.906-1.875-2.265-.688-1.36-.688-3.172h3.86q0 1.093.312 1.875.328.78.922 1.28.61.485 1.406.72.813.218 1.766.218 1.219 0 2.015-.375.813-.39 1.204-1.078.406-.703.406-1.625" aria-label="PUBLIC LIBRARIES" style="font-weight:500;font-stretch:semi-condensed;font-size:32px;line-height:1;font-family:&quot;Roboto SemiCondensed&quot;;-inkscape-font-specification:&quot;Roboto SemiCondensed, Medium Semi-Condensed&quot;;text-align:center;letter-spacing:2.5px;text-anchor:middle;fill:#384b88;stroke-width:1.00157;stroke-linecap:round;stroke-linejoin:round;stroke-dashoffset:36;paint-order:stroke fill markers"/><g style="stroke-width:.117266"><path d="M274.524 181.65q.964-.102 1.551-.23.587-.129 1.217-.411v-7.395q0-.95-.671-1.284-.63-.36-2.265-.411l.126-.745q1.677-.18 3.439-.513 1.803-.334 2.097-.385l.838.282v10.45q1.049.463 2.936.694l-.168.873h-9.268z" style="font-size:5.29431px;line-height:1;font-family:Caladea;-inkscape-font-specification:Caladea;text-align:center;text-anchor:middle;fill:#3dafc2;fill-opacity:1;stroke-width:.117451;stroke-linecap:round;stroke-linejoin:round;stroke-dashoffset:36;paint-order:stroke fill markers" transform="translate(-2313.106 -1416.457)scale(8.52768)"/><path d="M278.755 170.05q-1.676 0-1.676-1.614t1.676-1.614q.838 0 1.257.417.451.418.451 1.197t-.451 1.197q-.419.417-1.257.417" style="font-size:5.29431px;line-height:1;font-family:Caladea;-inkscape-font-specification:Caladea;text-align:center;text-anchor:middle;fill:#f7bc33;fill-opacity:1;stroke-width:.11745;stroke-linecap:round;stroke-linejoin:round;stroke-dashoffset:36;paint-order:stroke fill markers" transform="translate(-2313.106 -1416.457)scale(8.52768)"/></g><path d="M134.798 102.862v26.541h-4.484v-26.541zm30.938 0v26.541h-4.448L150.642 110.7v18.703h-4.43v-26.541h4.43l10.682 18.776v-18.776zm20.966 0v26.541h-4.466v-26.541zm7.547 0v3.682h-19.487v-3.682zm9.481 0h8.714q2.825 0 4.794.911 1.987.912 3.026 2.698 1.057 1.768 1.057 4.375 0 2.005-.656 3.518t-1.896 2.552q-1.22 1.021-2.916 1.568l-1.331.693h-7.62l-.036-3.664h5.56q1.476 0 2.442-.565.985-.584 1.477-1.586t.492-2.279q0-1.385-.474-2.406-.456-1.021-1.422-1.568-.966-.565-2.497-.565h-4.211v22.86h-4.503zm13.763 26.541-5.65-11.921 4.72-.019 5.743 11.703v.237zm23.883-22.95-7.182 22.95h-4.721l9.205-26.541h2.972zm5.87 22.95-7.2-22.95-.31-3.591h3.007l9.224 26.541zm-.128-9.862v3.683H233.72v-3.683zm33.38-16.68v26.542h-4.447L265.405 110.7v18.703h-4.43v-26.541h4.43l10.682 18.776v-18.776zm27.292 22.878v3.664h-12.815v-3.664zm-11.575-22.877v26.541h-4.503v-26.541zm9.88 11.065v3.61h-11.12v-3.61zm1.586-11.065v3.682h-12.706v-3.682zm20.437 0v26.541h-4.466v-26.541zm7.547 0v3.682h-19.487v-3.682z" aria-label="INTRANET" style="font-weight:500;font-stretch:semi-condensed;font-size:37.3333px;line-height:1;font-family:&quot;Roboto SemiCondensed&quot;;-inkscape-font-specification:&quot;Roboto SemiCondensed, Medium Semi-Condensed&quot;;text-align:center;letter-spacing:6px;text-anchor:middle;fill:#384b88;stroke-width:1.00157;stroke-linecap:round;stroke-linejoin:round;stroke-dashoffset:36;paint-order:stroke fill markers"/></svg>