<svg width="508" height="145" viewBox="0 0 508 145" fill="none" xmlns="http://www.w3.org/2000/svg">
<g clip-path="url(#clip0_776_11)">
<path d="M0.847656 64.5469L1.06343 80.7897C14.5338 79.9556 34.7392 76.3412 64.6082 66.537C34.0149 67.7808 13.9635 66.537 0.847656 64.5469Z" fill="#3DAFC2"/>
<path d="M1.37166 104.729C1.37166 104.729 4.16129 113.802 37.5597 118.792C67.2591 123.226 82.6097 145 82.6097 145L81.7775 66.5955C42.1525 80.7165 16.9535 86.2771 1.15588 88.0769L1.37166 104.729Z" fill="#3DAFC2"/>
<path d="M81.7159 60.0398L81.5309 43.0946C81.1148 13.1698 42.1372 9.16028 23.1338 7.91647C5.88749 6.80434 0 0.39502 0 0.39502L0.755201 57.0839C16.3987 60.4349 41.5823 62.6591 81.7159 60.0398Z" fill="#3DAFC2"/>
<path d="M104.988 58.8254C136.707 57.9475 157.406 61.1375 170.83 65.264L170.953 49.27C157.205 47.9237 136.229 49.4163 104.988 58.8254Z" fill="#F7BC33"/>
<path d="M171.015 42.1289L171.354 0C171.354 0 165.497 6.43859 148.266 7.63851C129.263 8.97013 90.3159 13.1552 90.0385 43.08L89.9614 57.6839C129.71 43.8556 155.171 41.1192 171.015 42.1289Z" fill="#3DAFC2"/>
<path d="M89.9152 65.1469L89.4683 144.985C89.4683 144.985 104.711 123.153 134.395 118.573C167.778 113.436 170.506 104.349 170.506 104.349L170.768 72.6244C155.279 67.1224 130.187 62.8787 89.9152 65.1469Z" fill="#3DAFC2"/>
<path d="M211.273 106.309H206.715V104.469H211.273C212.156 104.469 212.871 104.328 213.418 104.047C213.965 103.766 214.363 103.375 214.613 102.875C214.871 102.375 215 101.805 215 101.164C215 100.578 214.871 100.027 214.613 99.5117C214.363 98.9961 213.965 98.582 213.418 98.2695C212.871 97.9492 212.156 97.7891 211.273 97.7891H207.242V113H204.98V95.9375H211.273C212.562 95.9375 213.652 96.1602 214.543 96.6055C215.434 97.0508 216.109 97.668 216.57 98.457C217.031 99.2383 217.262 100.133 217.262 101.141C217.262 102.234 217.031 103.168 216.57 103.941C216.109 104.715 215.434 105.305 214.543 105.711C213.652 106.109 212.562 106.309 211.273 106.309ZM236.883 95.9375H239.133V107.48C239.133 108.762 238.848 109.828 238.277 110.68C237.707 111.531 236.949 112.172 236.004 112.602C235.066 113.023 234.047 113.234 232.945 113.234C231.789 113.234 230.742 113.023 229.805 112.602C228.875 112.172 228.137 111.531 227.59 110.68C227.051 109.828 226.781 108.762 226.781 107.48V95.9375H229.02V107.48C229.02 108.371 229.184 109.105 229.512 109.684C229.84 110.262 230.297 110.691 230.883 110.973C231.477 111.254 232.164 111.395 232.945 111.395C233.734 111.395 234.422 111.254 235.008 110.973C235.602 110.691 236.062 110.262 236.391 109.684C236.719 109.105 236.883 108.371 236.883 107.48V95.9375ZM255.766 105.02H251.441L251.418 103.203H255.344C255.992 103.203 256.559 103.094 257.043 102.875C257.527 102.656 257.902 102.344 258.168 101.938C258.441 101.523 258.578 101.031 258.578 100.461C258.578 99.8359 258.457 99.3281 258.215 98.9375C257.98 98.5391 257.617 98.25 257.125 98.0703C256.641 97.8828 256.023 97.7891 255.273 97.7891H251.945V113H249.684V95.9375H255.273C256.148 95.9375 256.93 96.0273 257.617 96.207C258.305 96.3789 258.887 96.6523 259.363 97.0273C259.848 97.3945 260.215 97.8633 260.465 98.4336C260.715 99.0039 260.84 99.6875 260.84 100.484C260.84 101.188 260.66 101.824 260.301 102.395C259.941 102.957 259.441 103.418 258.801 103.777C258.168 104.137 257.426 104.367 256.574 104.469L255.766 105.02ZM255.66 113H250.551L251.828 111.16H255.66C256.379 111.16 256.988 111.035 257.488 110.785C257.996 110.535 258.383 110.184 258.648 109.73C258.914 109.27 259.047 108.727 259.047 108.102C259.047 107.469 258.934 106.922 258.707 106.461C258.48 106 258.125 105.645 257.641 105.395C257.156 105.145 256.531 105.02 255.766 105.02H252.543L252.566 103.203H256.973L257.453 103.859C258.273 103.93 258.969 104.164 259.539 104.562C260.109 104.953 260.543 105.453 260.84 106.062C261.145 106.672 261.297 107.344 261.297 108.078C261.297 109.141 261.062 110.039 260.594 110.773C260.133 111.5 259.48 112.055 258.637 112.438C257.793 112.812 256.801 113 255.66 113ZM281.984 111.16V113H273.453V111.16H281.984ZM273.898 95.9375V113H271.637V95.9375H273.898ZM294 95.9375V113H291.738V95.9375H294ZM315.414 107.574H317.664C317.547 108.652 317.238 109.617 316.738 110.469C316.238 111.32 315.531 111.996 314.617 112.496C313.703 112.988 312.562 113.234 311.195 113.234C310.195 113.234 309.285 113.047 308.465 112.672C307.652 112.297 306.953 111.766 306.367 111.078C305.781 110.383 305.328 109.551 305.008 108.582C304.695 107.605 304.539 106.52 304.539 105.324V103.625C304.539 102.43 304.695 101.348 305.008 100.379C305.328 99.4023 305.785 98.5664 306.379 97.8711C306.98 97.1758 307.703 96.6406 308.547 96.2656C309.391 95.8906 310.34 95.7031 311.395 95.7031C312.684 95.7031 313.773 95.9453 314.664 96.4297C315.555 96.9141 316.246 97.5859 316.738 98.4453C317.238 99.2969 317.547 100.285 317.664 101.41H315.414C315.305 100.613 315.102 99.9297 314.805 99.3594C314.508 98.7812 314.086 98.3359 313.539 98.0234C312.992 97.7109 312.277 97.5547 311.395 97.5547C310.637 97.5547 309.969 97.6992 309.391 97.9883C308.82 98.2773 308.34 98.6875 307.949 99.2188C307.566 99.75 307.277 100.387 307.082 101.129C306.887 101.871 306.789 102.695 306.789 103.602V105.324C306.789 106.16 306.875 106.945 307.047 107.68C307.227 108.414 307.496 109.059 307.855 109.613C308.215 110.168 308.672 110.605 309.227 110.926C309.781 111.238 310.438 111.395 311.195 111.395C312.156 111.395 312.922 111.242 313.492 110.938C314.062 110.633 314.492 110.195 314.781 109.625C315.078 109.055 315.289 108.371 315.414 107.574ZM351.047 111.16V113H342.516V111.16H351.047ZM342.961 95.9375V113H340.699V95.9375H342.961ZM363.062 95.9375V113H360.801V95.9375H363.062ZM380.258 105.02H375.934L375.91 103.203H379.836C380.484 103.203 381.051 103.094 381.535 102.875C382.02 102.656 382.395 102.344 382.66 101.938C382.934 101.523 383.07 101.031 383.07 100.461C383.07 99.8359 382.949 99.3281 382.707 98.9375C382.473 98.5391 382.109 98.25 381.617 98.0703C381.133 97.8828 380.516 97.7891 379.766 97.7891H376.438V113H374.176V95.9375H379.766C380.641 95.9375 381.422 96.0273 382.109 96.207C382.797 96.3789 383.379 96.6523 383.855 97.0273C384.34 97.3945 384.707 97.8633 384.957 98.4336C385.207 99.0039 385.332 99.6875 385.332 100.484C385.332 101.188 385.152 101.824 384.793 102.395C384.434 102.957 383.934 103.418 383.293 103.777C382.66 104.137 381.918 104.367 381.066 104.469L380.258 105.02ZM380.152 113H375.043L376.32 111.16H380.152C380.871 111.16 381.48 111.035 381.98 110.785C382.488 110.535 382.875 110.184 383.141 109.73C383.406 109.27 383.539 108.727 383.539 108.102C383.539 107.469 383.426 106.922 383.199 106.461C382.973 106 382.617 105.645 382.133 105.395C381.648 105.145 381.023 105.02 380.258 105.02H377.035L377.059 103.203H381.465L381.945 103.859C382.766 103.93 383.461 104.164 384.031 104.562C384.602 104.953 385.035 105.453 385.332 106.062C385.637 106.672 385.789 107.344 385.789 108.078C385.789 109.141 385.555 110.039 385.086 110.773C384.625 111.5 383.973 112.055 383.129 112.438C382.285 112.812 381.293 113 380.152 113ZM396.129 95.9375H401.777C403.059 95.9375 404.141 96.1328 405.023 96.5234C405.914 96.9141 406.59 97.4922 407.051 98.2578C407.52 99.0156 407.754 99.9492 407.754 101.059C407.754 101.84 407.594 102.555 407.273 103.203C406.961 103.844 406.508 104.391 405.914 104.844C405.328 105.289 404.625 105.621 403.805 105.84L403.172 106.086H397.863L397.84 104.246H401.848C402.66 104.246 403.336 104.105 403.875 103.824C404.414 103.535 404.82 103.148 405.094 102.664C405.367 102.18 405.504 101.645 405.504 101.059C405.504 100.402 405.375 99.8281 405.117 99.3359C404.859 98.8438 404.453 98.4648 403.898 98.1992C403.352 97.9258 402.645 97.7891 401.777 97.7891H398.391V113H396.129V95.9375ZM406.102 113L401.953 105.266L404.309 105.254L408.516 112.859V113H406.102ZM424.234 97.4492L418.586 113H416.277L422.781 95.9375H424.27L424.234 97.4492ZM428.969 113L423.309 97.4492L423.273 95.9375H424.762L431.289 113H428.969ZM428.676 106.684V108.535H419.09V106.684H428.676ZM440.574 95.9375H446.223C447.504 95.9375 448.586 96.1328 449.469 96.5234C450.359 96.9141 451.035 97.4922 451.496 98.2578C451.965 99.0156 452.199 99.9492 452.199 101.059C452.199 101.84 452.039 102.555 451.719 103.203C451.406 103.844 450.953 104.391 450.359 104.844C449.773 105.289 449.07 105.621 448.25 105.84L447.617 106.086H442.309L442.285 104.246H446.293C447.105 104.246 447.781 104.105 448.32 103.824C448.859 103.535 449.266 103.148 449.539 102.664C449.812 102.18 449.949 101.645 449.949 101.059C449.949 100.402 449.82 99.8281 449.562 99.3359C449.305 98.8438 448.898 98.4648 448.344 98.1992C447.797 97.9258 447.09 97.7891 446.223 97.7891H442.836V113H440.574V95.9375ZM450.547 113L446.398 105.266L448.754 105.254L452.961 112.859V113H450.547ZM464.789 95.9375V113H462.527V95.9375H464.789ZM486.742 111.16V113H477.707V111.16H486.742ZM478.164 95.9375V113H475.902V95.9375H478.164ZM485.547 103.273V105.113H477.707V103.273H485.547ZM486.625 95.9375V97.7891H477.707V95.9375H486.625ZM505.637 108.688C505.637 108.289 505.574 107.938 505.449 107.633C505.332 107.32 505.121 107.039 504.816 106.789C504.52 106.539 504.105 106.301 503.574 106.074C503.051 105.848 502.387 105.617 501.582 105.383C500.738 105.133 499.977 104.855 499.297 104.551C498.617 104.238 498.035 103.883 497.551 103.484C497.066 103.086 496.695 102.629 496.438 102.113C496.18 101.598 496.051 101.008 496.051 100.344C496.051 99.6797 496.188 99.0664 496.461 98.5039C496.734 97.9414 497.125 97.4531 497.633 97.0391C498.148 96.6172 498.762 96.2891 499.473 96.0547C500.184 95.8203 500.977 95.7031 501.852 95.7031C503.133 95.7031 504.219 95.9492 505.109 96.4414C506.008 96.9258 506.691 97.5625 507.16 98.3516C507.629 99.1328 507.863 99.9688 507.863 100.859H505.613C505.613 100.219 505.477 99.6523 505.203 99.1602C504.93 98.6602 504.516 98.2695 503.961 97.9883C503.406 97.6992 502.703 97.5547 501.852 97.5547C501.047 97.5547 500.383 97.6758 499.859 97.918C499.336 98.1602 498.945 98.4883 498.688 98.9023C498.438 99.3164 498.312 99.7891 498.312 100.32C498.312 100.68 498.387 101.008 498.535 101.305C498.691 101.594 498.93 101.863 499.25 102.113C499.578 102.363 499.992 102.594 500.492 102.805C501 103.016 501.605 103.219 502.309 103.414C503.277 103.688 504.113 103.992 504.816 104.328C505.52 104.664 506.098 105.043 506.551 105.465C507.012 105.879 507.352 106.352 507.57 106.883C507.797 107.406 507.91 108 507.91 108.664C507.91 109.359 507.77 109.988 507.488 110.551C507.207 111.113 506.805 111.594 506.281 111.992C505.758 112.391 505.129 112.699 504.395 112.918C503.668 113.129 502.855 113.234 501.957 113.234C501.168 113.234 500.391 113.125 499.625 112.906C498.867 112.688 498.176 112.359 497.551 111.922C496.934 111.484 496.438 110.945 496.062 110.305C495.695 109.656 495.512 108.906 495.512 108.055H497.762C497.762 108.641 497.875 109.145 498.102 109.566C498.328 109.98 498.637 110.324 499.027 110.598C499.426 110.871 499.875 111.074 500.375 111.207C500.883 111.332 501.41 111.395 501.957 111.395C502.746 111.395 503.414 111.285 503.961 111.066C504.508 110.848 504.922 110.535 505.203 110.129C505.492 109.723 505.637 109.242 505.637 108.688Z" fill="#384B88"/>
<path d="M229.125 65.7812V72H206.281V65.7812H229.125ZM208.469 26.5V72H200.625V26.5H208.469ZM268.969 65.7812V72H244.812V65.7812H268.969ZM247.031 26.5V72H239.188V26.5H247.031ZM265.812 45.5V51.625H244.812V45.5H265.812ZM268.812 26.5V32.75H244.812V26.5H268.812ZM296.438 51.4375H284.844L284.781 45.7188H294.906C296.615 45.7188 298.062 45.4688 299.25 44.9688C300.458 44.4479 301.375 43.7083 302 42.75C302.625 41.7708 302.938 40.5938 302.938 39.2188C302.938 37.6979 302.646 36.4583 302.062 35.5C301.479 34.5417 300.583 33.8438 299.375 33.4062C298.188 32.9688 296.667 32.75 294.812 32.75H287.219V72H279.375V26.5H294.812C297.312 26.5 299.542 26.7396 301.5 27.2188C303.479 27.6979 305.156 28.4479 306.531 29.4688C307.927 30.4688 308.979 31.7396 309.688 33.2812C310.417 34.8229 310.781 36.6562 310.781 38.7812C310.781 40.6562 310.333 42.375 309.438 43.9375C308.542 45.4792 307.219 46.7396 305.469 47.7188C303.719 48.6979 301.542 49.2812 298.938 49.4688L296.438 51.4375ZM296.094 72H282.375L285.906 65.7812H296.094C297.865 65.7812 299.344 65.4896 300.531 64.9062C301.719 64.3021 302.604 63.4792 303.188 62.4375C303.792 61.375 304.094 60.1354 304.094 58.7188C304.094 57.2396 303.833 55.9583 303.312 54.875C302.792 53.7708 301.969 52.9271 300.844 52.3438C299.719 51.7396 298.25 51.4375 296.438 51.4375H287.625L287.688 45.7188H299.156L300.938 47.875C303.438 47.9583 305.49 48.5104 307.094 49.5312C308.719 50.5521 309.927 51.875 310.719 53.5C311.51 55.125 311.906 56.875 311.906 58.75C311.906 61.6458 311.271 64.0729 310 66.0312C308.75 67.9896 306.948 69.4792 304.594 70.5C302.24 71.5 299.406 72 296.094 72ZM341.531 32.5625L327.938 72H319.719L336.844 26.5H342.094L341.531 32.5625ZM352.906 72L339.281 32.5625L338.688 26.5H343.969L361.156 72H352.906ZM352.25 55.125V61.3438H327.5V55.125H352.25ZM406.344 26.5V72H398.5L378.094 39.4062V72H370.25V26.5H378.094L398.562 59.1562V26.5H406.344ZM455.969 48V50.5C455.969 53.9375 455.521 57.0208 454.625 59.75C453.729 62.4792 452.448 64.8021 450.781 66.7188C449.135 68.6354 447.156 70.1042 444.844 71.125C442.531 72.125 439.969 72.625 437.156 72.625C434.365 72.625 431.812 72.125 429.5 71.125C427.208 70.1042 425.219 68.6354 423.531 66.7188C421.844 64.8021 420.531 62.4792 419.594 59.75C418.677 57.0208 418.219 53.9375 418.219 50.5V48C418.219 44.5625 418.677 41.4896 419.594 38.7812C420.51 36.0521 421.802 33.7292 423.469 31.8125C425.156 29.875 427.146 28.4062 429.438 27.4062C431.75 26.3854 434.302 25.875 437.094 25.875C439.906 25.875 442.469 26.3854 444.781 27.4062C447.094 28.4062 449.083 29.875 450.75 31.8125C452.417 33.7292 453.698 36.0521 454.594 38.7812C455.51 41.4896 455.969 44.5625 455.969 48ZM448.125 50.5V47.9375C448.125 45.3958 447.875 43.1562 447.375 41.2188C446.896 39.2604 446.177 37.625 445.219 36.3125C444.281 34.9792 443.125 33.9792 441.75 33.3125C440.375 32.625 438.823 32.2812 437.094 32.2812C435.365 32.2812 433.823 32.625 432.469 33.3125C431.115 33.9792 429.958 34.9792 429 36.3125C428.062 37.625 427.344 39.2604 426.844 41.2188C426.344 43.1562 426.094 45.3958 426.094 47.9375V50.5C426.094 53.0417 426.344 55.2917 426.844 57.25C427.344 59.2083 428.073 60.8646 429.031 62.2188C430.01 63.5521 431.177 64.5625 432.531 65.25C433.885 65.9167 435.427 66.25 437.156 66.25C438.906 66.25 440.458 65.9167 441.812 65.25C443.167 64.5625 444.312 63.5521 445.25 62.2188C446.188 60.8646 446.896 59.2083 447.375 57.25C447.875 55.2917 448.125 53.0417 448.125 50.5ZM503.906 26.5V72H496.062L475.656 39.4062V72H467.812V26.5H475.656L496.125 59.1562V26.5H503.906Z" fill="#384B88"/>
</g>
<defs>
<clipPath id="clip0_776_11">
<rect width="508" height="145" fill="white"/>
</clipPath>
</defs>
</svg>
